<svg viewBox="0 0 214 135" fill="none" xmlns="http://www.w3.org/2000/svg">
<path d="M131.655 124.769C131.502 124.748 131.354 124.698 131.219 124.622L96.1123 74.3674L77.614 68.9613L8.77181 60.0657C8.54068 60.0359 8.32276 59.941 8.14337 59.7923C7.96399 59.6435 7.8305 59.4469 7.75843 59.2253C7.68636 59.0036 7.67867 58.7661 7.73624 58.5403C7.79381 58.3145 7.91429 58.1096 8.08367 57.9495L18.8809 47.7996C19.0553 47.6399 19.2695 47.5302 19.5011 47.4821L102.432 32.3987L135.144 20.5872C135.292 20.5325 135.45 20.5078 135.608 20.5144L175.06 21.9423L175.174 21.9569C175.38 21.9814 175.576 22.0609 175.741 22.1869L206.234 69.2977C206.397 69.4189 206.528 69.5789 206.614 69.7634C206.7 69.9479 206.739 70.151 206.727 70.3543C206.717 70.5566 206.658 70.7535 206.555 70.9278C206.452 71.1022 206.308 71.2485 206.135 71.3541L190.063 82.8311L187.455 91.7242C187.386 91.9592 187.248 92.1685 187.06 92.3255C186.872 92.4825 186.642 92.5802 186.398 92.6064L164.984 94.8206L132.568 124.556C132.303 124.743 131.976 124.819 131.655 124.769Z" fill="black"/>
<path d="M175.027 23.1711L205.511 70.2808L189.017 82.018L186.274 91.3821L164.477 93.5471L131.785 123.503L96.5561 73.2326L77.8634 67.7932L8.92873 58.8444L19.7207 48.7352L102.77 33.6339L135.579 21.7688L175.027 23.1711ZM175.34 20.7285L175.112 20.6992L135.674 19.2898C135.358 19.2749 135.042 19.3244 134.745 19.4352L102.102 31.2307L19.2801 46.3032C18.8126 46.3873 18.3794 46.6046 18.0327 46.9292L7.24567 57.0639C6.90984 57.384 6.67126 57.7924 6.55741 58.2422C6.44357 58.6919 6.45908 59.1647 6.60216 59.606C6.74525 60.0473 7.01008 60.4393 7.36617 60.7367C7.72226 61.0341 8.15511 61.2248 8.61486 61.287L77.3541 70.2107L95.6255 75.5794L130.619 125.745C130.89 125.895 131.186 125.992 131.493 126.031C131.816 126.072 132.144 126.047 132.458 125.96C132.772 125.872 133.066 125.723 133.321 125.521L165.466 95.9667L186.514 93.8296C187.001 93.7799 187.462 93.5863 187.838 93.2735C188.214 92.9607 188.489 92.5429 188.627 92.0734L191.133 83.6473L206.794 72.4072C207.146 72.1997 207.44 71.908 207.651 71.5583C207.862 71.2086 207.983 70.812 208.003 70.404C208.022 69.9961 207.94 69.5897 207.764 69.2214C207.587 68.8532 207.322 68.5346 206.991 68.2943L176.481 21.1896C176.146 20.9418 175.754 20.7832 175.34 20.7285Z" fill="white"/>
<path d="M125.244 58.206L76.7469 38.3513L19.7228 48.7189L8.9287 58.8444L77.8686 67.7525L106.615 68.3758L103.862 57.7924L125.244 58.206Z" fill="#424242"/>
<path d="M124.331 45.5416L130.449 42.115L135.598 46.8735L134.231 39.9939L140.349 36.5673L133.386 35.7471L132.011 28.8665L129.082 35.2355L122.119 34.4153L127.268 39.1737L124.331 45.5416Z" fill="#FFC200"/>
<path d="M125.604 58.3101L101.126 51.126L28.5481 53.2711L9.28668 58.9566" stroke="black" stroke-width="0.646309" stroke-miterlimit="10"/>
</svg>
