<svg width="2838" height="3063" viewBox="0 0 2838 3063" fill="none" xmlns="http://www.w3.org/2000/svg">
<path d="M51.173 2271.03C51.173 2271.03 50.9691 2268.8 51.5895 2267.78L52.0936 2268.09L51.5902 2267.78L51.5929 2267.78L51.8334 2267.38L52.2555 2266.69L52.559 2266.19C53.1979 2265.13 54.142 2263.57 55.36 2261.53C57.796 2257.47 61.3268 2251.52 65.7006 2244.02C74.4491 2229.03 86.5675 2207.83 100.043 2183C127.011 2133.32 159.341 2069.27 180.993 2011.49C203.185 1952.27 251.506 1908.84 303.092 1875.48C339.886 1851.68 378.797 1832.76 411.384 1816.9L411.402 1816.9C424.415 1810.57 436.419 1804.73 446.876 1799.26C493.78 1774.76 530.789 1769.05 562.847 1771.17C585.855 1772.7 606.414 1778.32 625.776 1783.61C633.098 1785.62 640.249 1787.57 647.297 1789.24C672.761 1795.27 687.27 1792.25 698.189 1789.27C698.658 1789.15 699.126 1789.02 699.593 1788.89C700.102 1788.74 700.609 1788.6 701.116 1788.46L701.119 1788.46L701.123 1788.45L701.127 1788.45C705.513 1787.22 709.828 1786 714.073 1785.65C719.578 1785.19 725.04 1786.15 731.264 1789.65C735.929 1792.27 743.767 1793.81 753.731 1794.19C763.545 1794.57 774.879 1793.81 786.122 1792.28C797.357 1790.75 808.394 1788.45 817.6 1785.79C826.954 1783.09 833.949 1780.14 837.474 1777.49C846.184 1770.96 862.805 1762.17 883.525 1754.16C904.311 1746.12 929.497 1738.77 955.439 1735.27C976.316 1732.44 1012.5 1733.05 1048.92 1734.89C1057.31 1735.31 1065.74 1735.8 1074.03 1736.34C1067.64 1722.23 1061.98 1708.67 1057.44 1696.25C1028.62 1617.34 1024.03 1518.58 1024.03 1510.76C1024.03 1505.68 1013.12 1395.93 1002.21 1299.53C993.462 1284.48 979.966 1259.66 974.385 1243.5C967.801 1224.44 969.585 1204.27 970.643 1192.3V1192.29L970.644 1192.29L970.646 1192.27C970.901 1189.38 971.114 1186.97 971.156 1185.17C971.284 1179.65 968.504 1159.59 966.239 1143.24L966.238 1143.24L966.238 1143.24C964.705 1132.17 963.407 1122.81 963.407 1120.81C963.407 1119.5 962.638 1114.54 961.598 1107.83C958.711 1089.22 953.741 1057.17 957.381 1052.58C958.063 1051.72 958.964 1051.22 960.015 1051C956.767 1029.64 955.239 1006.58 957.005 978.92C958.452 956.25 958.662 935.59 958.881 914.128V914.116C959.18 884.736 959.495 853.851 963.018 814.24C959.762 803.054 956.967 790.284 957.443 781.254C957.944 771.725 963.974 761.435 970.211 753.442C972.193 739.804 974.535 725.239 977.305 709.592C976.954 709.086 976.598 708.562 976.238 708.021C956.614 678.585 968.23 631.793 974.248 607.554C975.034 604.387 975.725 601.605 976.238 599.297C978.59 588.709 993.419 581.24 1010.14 575.897C1024.42 530.96 1041.75 486.199 1060.93 443.991C1061.55 396.684 1065.02 343.585 1075.08 314.961C1077.73 307.396 1080.27 299.913 1082.75 292.593L1082.75 292.591C1098.87 245.016 1112.64 204.352 1142.55 193.057C1153.43 188.944 1162.87 184.45 1171.34 180.417L1171.34 180.416C1181.5 175.574 1190.27 171.397 1198.48 169.344C1205.92 164.245 1215.22 159.32 1223.65 154.851L1223.65 154.85L1223.65 154.849C1236.08 148.263 1246.64 142.668 1246.64 138.972C1246.64 136.391 1246.12 134.446 1245.67 132.793C1244.7 129.174 1244.11 126.951 1250.16 122.513C1258.98 116.047 1269.56 91.358 1273.68 79.0138C1277.79 66.6695 1326.58 39.0419 1371.84 14.3533C1415.05 -9.21468 1463.08 2.03612 1487.29 7.70817C1488.44 7.97789 1489.54 8.23497 1490.58 8.47508C1502.95 11.3281 1509.32 11.6168 1516.08 11.9226C1521.86 12.1838 1527.9 12.4576 1538.2 14.3533C1548.8 16.3064 1552.38 24.7483 1555.36 31.7594C1558.65 39.5198 1561.2 45.527 1571.7 39.0419C1591.69 26.6976 1609.32 29.0488 1657.52 59.6156C1696.09 84.0691 1716.7 122.709 1722.18 138.972C1758.63 130.742 1798.01 171.302 1837.99 221.855C1860.15 249.885 1863.07 280.099 1860.11 301.811C1878.72 295.311 1908.69 290.899 1928.37 308.767C1931.8 311.879 1935.43 315.138 1939.21 318.532L1939.26 318.576L1939.33 318.637L1939.33 318.639C1967.86 344.241 2004.92 377.506 2027.97 412.875C2054.11 452.986 2083.41 528.7 2087.91 541.77C2092.42 554.84 2107.29 588.641 2119.46 603.964C2131.63 619.287 2147.4 653.539 2143.8 664.355C2146.65 664.956 2152.45 668.321 2152.81 676.974C2153.08 683.523 2149.72 690.073 2147.03 695.321L2147.03 695.323L2147.03 695.326C2145.27 698.744 2143.8 701.61 2143.8 703.565C2143.8 705.32 2144.68 708.043 2145.75 711.317C2147.69 717.287 2150.23 725.088 2149.07 732.182L2148.63 734.861L2148.63 734.877L2148.61 734.956L2148.61 734.984C2145.9 751.453 2134.81 819.006 2131.21 853.49C2136.09 927.832 2135.61 1010.05 2127.09 1059.7L2127.17 1059.75L2127.27 1059.82C2127.34 1059.87 2127.41 1059.93 2127.48 1059.98C2142.35 1070.86 2150.66 1085.73 2153.15 1100.65C2155.26 1113.3 2154.89 1123.18 2154.61 1130.51C2154.57 1131.66 2154.53 1132.75 2154.5 1133.78C2154.44 1136.02 2153.84 1141.97 2153.08 1149.57L2153.08 1149.59L2153.07 1149.69L2153.06 1149.77C2152.5 1155.31 2151.86 1161.72 2151.28 1168.19C2150.57 1175.98 2149.95 1183.91 2149.63 1190.72C2149.3 1197.58 2149.31 1203.11 2149.8 1206.19C2150.88 1212.92 2152.27 1229.56 2153.14 1246.48C2154.02 1263.37 2154.4 1280.85 2153.42 1289.19C2152.47 1297.35 2150.44 1313.69 2147.4 1330.33C2144.38 1346.87 2140.3 1364.03 2135.13 1373.64C2125.21 1392.1 2120.4 1405.91 2118.54 1414.83C2116.55 1424.38 2109.32 1441.89 2091.64 1455.21C2080.73 1463.44 2070.25 1466.76 2063.63 1467.75C2063.08 1474.4 2062.68 1480.3 2062.44 1485.25C2059.83 1540.03 2030.88 1684.82 2020.44 1725.25C2013.91 1750.56 1997.51 1772.25 1981.27 1790.17C1984.71 1796.56 1987.58 1803.74 1989.23 1811.57C1991.67 1823.15 1998.62 1836.03 2006.61 1847.62C2014.54 1859.15 2023.24 1869.04 2028.77 1874.57L2029.45 1875.25L2034.75 1891.91C2061.92 1898.51 2121.49 1914.64 2159.12 1930.58C2183.32 1940.84 2262.76 1983.22 2344.12 2028.26C2425.54 2073.34 2509.36 2121.34 2542.41 2142.97C2568.96 2160.34 2637.16 2214.74 2700.62 2266.87C2732.41 2292.97 2763.07 2318.56 2786.85 2338.75C2810.5 2358.84 2827.6 2373.81 2832.01 2378.52C2833.49 2380.1 2833.44 2382.56 2831.92 2384.08L2832.11 2384.23C2832.81 2383.3 2833.35 2380.36 2834.19 2381.43C2834.28 2381.55 2836.85 2128.06 2834.39 2381.75C2831.92 2635.43 2834.19 3062.97 2834.19 3062.97H1480.43H51.173V2271.03Z" fill="#FFFEF5"/>
<path d="M0.300379 1486.31C30.5943 1502.39 40.0174 1507.37 0.259766 1486.21L0.300379 1486.31Z" fill="#FFFEF5"/>
<path d="M1263.96 862.332C1259.56 869.167 1252.68 887.524 1260.3 906.271L1277.14 912.862L1293.25 918.721L1327.67 933.367L1334.53 937.942C1335.37 940.872 1335.95 942.921 1336.16 943.69C1337.21 947.417 1334.81 951.718 1333.47 954.125C1333.07 954.85 1332.76 955.404 1332.67 955.718C1332.28 957.076 1325.49 967.746 1320.84 965.418C1316.18 963.09 1310.03 963.672 1306.87 967.746C1304.34 971.006 1284.41 977.708 1274.76 980.651L1282.35 990.552C1285.26 997.153 1281.14 1008.48 1278.72 1013.33C1285.65 1010.57 1301.62 1007.32 1310.03 1016.3C1319.89 1026.82 1311.25 1047.17 1303.84 1064.63C1303.35 1065.78 1302.86 1066.92 1302.39 1068.05C1296.28 1082.57 1271.82 1099.57 1260.36 1106.26C1269.28 1102.12 1291.69 1090.21 1310.03 1075.69C1332.95 1057.54 1398.86 973.488 1395.99 949.609C1393.69 930.448 1382.17 928.507 1373.26 927.008C1371.07 926.639 1369.04 926.296 1367.34 925.73C1358.74 922.865 1344.42 908.537 1338.68 898.031C1334.53 890.406 1325.86 886.921 1320.96 885.864C1319.9 884.719 1318.7 883.626 1317.34 882.578C1302.91 871.403 1297.73 868.87 1296.94 869C1289.99 866.566 1273.67 861.824 1263.96 862.332Z" fill="#D5D2C7"/>
<path d="M1765.65 751.382C1715.4 771.73 1612.41 821.397 1602.45 857.276C1589.99 902.126 1589.99 914.584 1602.45 954.45L1623.63 961.925L1688.41 981.858C1684.26 985.18 1678.44 992.821 1688.41 996.807C1698.37 1000.79 1721.56 1005 1731.91 1006.6C1712.87 1014.65 1671.13 1030.03 1656.48 1027.1C1656.17 1027.04 1655.86 1026.98 1655.57 1026.92C1669.77 1045.71 1704.4 1081.48 1745.09 1093.74C1798.55 1109.86 1815.39 1136.22 1814.66 1147.2C1813.93 1158.19 1792.69 1208.72 1749.48 1208.72C1706.28 1208.72 1683.57 1188.95 1682.84 1220.44C1682.11 1251.93 1824.18 1375.69 1824.18 1392.53C1824.18 1409.37 1684.31 1412.3 1670.39 1410.11C1656.48 1407.91 1561.28 1293.67 1572.99 1284.88C1584.71 1276.09 1602.92 1281.95 1613.27 1276.82C1623.63 1271.7 1627.92 1258.52 1629.38 1243.14C1630.85 1227.76 1601.5 1196.83 1595.89 1193.86C1590.28 1190.89 1557.94 1200.79 1550.34 1206.4C1544.27 1210.89 1528.89 1227.41 1521.96 1235.11C1525.53 1201.01 1523.56 1130.1 1487.18 1119.32C1441.7 1105.84 1506.83 1009.11 1502.34 954.45C1497.85 899.787 1481 882.381 1491.67 877.328C1502.34 872.275 1505.14 877.89 1506.27 863.292C1507.39 848.693 1525.92 855.993 1529.85 850.939C1533.78 845.886 1560.17 788.617 1643.83 756.613C1710.75 731.01 1752.93 742.458 1765.65 751.382Z" fill="#D5D2C7"/>
<path d="M1622.46 2123.43C1640.68 2072.26 1635.29 2003.6 1634.46 1974.43L1951.46 1807.43L1948.96 1838.93L1942.46 1987.43L1934.46 2063.43L1918.96 2102.93L1860.96 2222.43L1827.96 2272.93C1772.96 2249.93 1663.96 2420.93 1661.96 2390.43C1659.96 2359.93 1714.46 2257.93 1714.46 2224.93C1714.46 2198 1685.34 2178.93 1667.46 2198.93C1629.46 2241.43 1636.96 2244.93 1622.46 2235.43C1607.96 2225.93 1598.96 2189.43 1622.46 2123.43Z" fill="#D5D2C7"/>
<path d="M1373.46 2235.43C1314.66 2193.83 1230.29 1976.1 1195.46 1872.43L1184.96 1853.43L1159.46 1863.93L1162.96 1917.93L1169.96 1966.93L1184.96 2035.43L1198.96 2099.93L1247.46 2242.93V2272.93L1304.46 2428.93L1348.96 2467.43L1372.46 2480.93L1377.46 2492.93L1389.96 2507.43L1421.46 2539.43L1438.96 2583.43L1458.96 2609.93L1468.46 2628.93L1483.46 2703.43L1510.46 2670.43L1515.96 2651.43C1515.13 2640.76 1511.96 2613.23 1505.96 2588.43C1499.96 2563.63 1441.79 2500.76 1413.46 2472.43C1424.63 2410.76 1432.26 2277.03 1373.46 2235.43Z" fill="#D5D2C7"/>
<path d="M1594.46 205.601C1655.28 247.065 1786.86 356.531 1826.66 462.68C1876.42 595.365 1848.78 725.287 1810.08 730.815C1840.54 748.703 1904.37 794.553 1916.07 834.851C1930.7 885.223 1936.32 937.008 1933.83 953.204C1933.44 955.758 1933.16 958.25 1932.89 960.598C1931.45 973.133 1930.49 981.532 1916.07 973.137C1902.6 965.294 1887.01 933.534 1879.94 919.13C1878.02 915.231 1876.73 912.604 1876.28 912.067C1874.14 909.544 1852.89 887.951 1833.26 878.431C1813.62 868.911 1772.56 856.268 1766.46 854.929C1766.52 855.1 1766.56 855.279 1766.58 855.463C1732.93 844.191 1718.76 849.085 1672.7 864.997C1670.21 865.855 1667.64 866.746 1664.96 867.667C1645.08 874.508 1628.46 925.834 1622.46 950.167L1639.96 944.667C1640.2 944.111 1640.43 943.416 1640.71 942.593C1643.58 933.95 1651.13 911.257 1726.46 888.429C1726.52 888.393 1726.59 888.356 1726.66 888.32C1772.8 884.188 1783.54 891.451 1791.27 896.678C1792.4 897.443 1793.47 898.165 1794.58 898.801C1805.47 905.071 1842.44 932.149 1843.78 940.26C1838.16 951.219 1821.44 973.137 1799.53 973.137C1803.59 985.267 1806.6 1009.97 1786.1 1011.72C1797.17 1011.62 1821.28 1008.92 1829.2 998.928C1839.1 986.445 1898.31 1011.97 1916.07 1059.09C1924.04 1080.24 1908.18 1129.53 1888.27 1191.39C1863.82 1267.38 1833.26 1362.35 1833.26 1447.44C1833.26 1566.4 1823.05 1559.91 1808.53 1550.68C1804.21 1547.93 1799.51 1544.94 1794.58 1544.94H1742.67C1709.89 1559.81 1637.27 1589.38 1608.99 1588.61C1591.8 1592.11 1562.57 1606 1583.21 1633.5C1597.44 1652.48 1579.96 1683.96 1564.01 1712.7C1551.06 1736.05 1539.1 1757.58 1545.95 1769.14C1558.18 1789.77 1614.73 1828.68 1641.47 1845.55L1885.04 1691.77L2031.18 1530.35L2048.37 1386.12L2079.89 1252.4L2091.35 1036.53L2056.96 586.648L1956.67 422.361L1763.73 259.984L1594.46 197.898V205.601Z" fill="#D5D2C7"/>
<path d="M1116.44 948.254C1118.44 942.587 1124.84 928.854 1134.44 919.254C1146.44 907.254 1172.44 881.254 1193.44 876.254C1214.44 871.254 1252.44 860.254 1266.44 862.254C1280.44 864.254 1304.44 866.254 1319.44 885.254" stroke="#373043" stroke-width="2" stroke-linecap="round"/>
<path d="M1649.44 885.254C1649.44 881.588 1654.24 872.254 1673.44 864.254C1697.44 854.254 1734.44 846.254 1746.44 850.254C1758.44 854.254 1838.44 869.254 1863.44 900.254L1889.44 923.254" stroke="#373043" stroke-width="2" stroke-linecap="round"/>
<path d="M1367.44 1145.25C1356.44 1153.92 1333.64 1175.65 1330.44 1193.25C1326.44 1215.25 1319.44 1232.25 1330.44 1254.25C1339.24 1271.85 1366.77 1289.59 1379.44 1296.25" stroke="#373043" stroke-width="3" stroke-linecap="round"/>
<path d="M1559.44 1078.25C1571.1 1091.57 1595.86 1124.32 1601.63 1148.84C1620.11 1158.45 1656.79 1185.16 1655.71 1215.09C1654.36 1252.49 1649.4 1267.37 1618.75 1292.15" stroke="#373043" stroke-width="3" stroke-linecap="round"/>
<path d="M1401.07 1241.68C1404.32 1246.73 1407.53 1245.58 1408.74 1244.38C1416.4 1235.82 1433.52 1236.72 1440.73 1233.57C1433.97 1222.75 1394.31 1201.12 1391.61 1201.12C1388.91 1201.12 1386.65 1208.33 1387.1 1217.34C1387.55 1226.36 1397.02 1235.37 1401.07 1241.68Z" fill="#373043"/>
<path d="M1527.49 1219.2C1522.24 1225.56 1525.3 1229.45 1527.49 1230.6C1545.8 1228.53 1552.02 1234.4 1561.01 1240.97C1569.99 1247.53 1571.72 1237.86 1577.59 1232.67C1583.47 1227.49 1585.54 1224.38 1585.88 1219.2C1586.23 1214.02 1584.16 1202.96 1571.72 1199.16C1559.28 1195.36 1548.57 1201.23 1544.07 1202.96C1539.58 1204.69 1534.05 1211.25 1527.49 1219.2Z" fill="#373043"/>
<path d="M1203.88 1608.38C1199.59 1616.35 1182.67 1634.7 1174.74 1642.88C1178.83 1629.85 1171.51 1592.12 1170.28 1584.15C1168.75 1574.18 1150.98 1516.87 1150.98 1491.84C1150.98 1470.02 1174.74 1444.3 1210.01 1412.87C1245.28 1381.44 1328.85 1350 1341.88 1343.87C1354.92 1337.73 1397.09 1287.13 1408.59 1275.63C1420.09 1264.13 1446.92 1273.33 1452.29 1275.63C1457.66 1277.93 1491.39 1304.77 1493.69 1300.17C1495.53 1296.49 1531.77 1272.56 1549.66 1261.06C1561.67 1265.15 1593.82 1279.62 1626.33 1304.77C1666.96 1336.2 1802.67 1382.2 1820.3 1389.1C1837.94 1396 1843.3 1416.7 1851.74 1455.81C1860.17 1494.91 1854.04 1563.91 1851.74 1572.34C1849.9 1579.09 1830.01 1622.18 1820.3 1642.88C1814.94 1637.51 1781.2 1593.04 1774.3 1586.14C1767.4 1579.24 1763.19 1543.21 1757.06 1536.31C1750.92 1529.41 1706.1 1507.86 1689.24 1498.66C1672.37 1489.46 1612.53 1477.27 1594.13 1471.14C1579.41 1466.23 1539.95 1458.87 1522.06 1455.81L1486.79 1477.27L1466.86 1460.41C1463.53 1458.87 1450.45 1456.73 1424.69 1460.41C1392.49 1465.01 1259.85 1524.04 1245.28 1536.31C1230.71 1548.58 1221.51 1565.44 1215.38 1576.18C1209.25 1586.91 1209.25 1598.41 1203.88 1608.38Z" fill="#373043"/>
<path fill-rule="evenodd" clip-rule="evenodd" d="M1837.98 221.855C1860.15 249.885 1863.07 280.099 1860.1 301.811C1878.72 295.311 1908.69 290.899 1928.37 308.767C1931.83 311.911 1935.51 315.205 1939.33 318.637C1967.86 344.239 2004.92 377.506 2027.97 412.875C2054.11 452.986 2083.41 528.7 2087.91 541.77C2092.42 554.84 2107.29 588.641 2119.46 603.964C2131.63 619.287 2147.4 653.539 2143.8 664.355C2146.65 664.956 2152.45 668.321 2152.81 676.974C2153.08 683.525 2149.72 690.076 2147.02 695.326C2145.27 698.744 2143.8 701.61 2143.8 703.565C2143.8 705.32 2144.68 708.043 2145.75 711.316L2145.75 711.317C2147.69 717.287 2150.23 725.088 2149.07 732.182C2148.97 732.786 2148.82 733.69 2148.63 734.861C2145.96 751.114 2134.82 818.92 2131.21 853.49C2138.28 961.295 2134.1 1085.66 2110.44 1103.25C2103.29 1133.15 2099.48 1172.82 2096.62 1202.66C2095.08 1218.73 2093.81 1231.95 2092.44 1239.25C2088.53 1260.12 2065.05 1430.47 2062.44 1485.25C2059.83 1540.03 2030.88 1684.82 2020.44 1725.25C2011.58 1759.59 1984.55 1787.27 1964.4 1807.92L1964.39 1807.92C1960.81 1811.59 1957.45 1815.03 1954.44 1818.25C1935.12 1838.95 1884.11 1876.68 1831.54 1915.56C1807.91 1933.04 1783.97 1950.75 1762.44 1967.25C1702.44 2013.25 1610.48 2050.25 1597.44 2050.25C1593.23 2050.25 1578.26 2051.33 1558.61 2052.74L1558.61 2052.75L1558.6 2052.75C1517.42 2055.71 1455.68 2060.15 1429.19 2059.27C1390.06 2057.96 1313.23 2016.25 1271.44 1989.25C1233.61 1964.82 1190.79 1933.91 1176.44 1918.25C1162.09 1902.6 1086.54 1775.93 1057.44 1696.25C1028.62 1617.34 1024.03 1518.58 1024.03 1510.76C1024.03 1502.93 998.137 1246.69 986.229 1173.54C982.288 1149.33 977.197 1128.59 972.332 1108.78C962.496 1068.71 953.588 1032.42 957.003 978.92C958.45 956.247 958.661 935.586 958.88 914.122C959.179 884.74 959.494 853.853 963.017 814.24C959.761 803.054 956.966 790.284 957.441 781.254C957.943 771.725 963.973 761.435 970.21 753.442C972.192 739.804 974.534 725.239 977.304 709.592C976.953 709.086 976.597 708.562 976.236 708.021C956.612 678.585 968.229 631.792 974.246 607.554C975.033 604.387 975.723 601.605 976.236 599.297C978.589 588.709 993.417 581.24 1010.14 575.897C1024.42 530.96 1041.75 486.199 1060.93 443.991C1061.55 396.685 1065.02 343.585 1075.07 314.961C1077.73 307.396 1080.27 299.913 1082.75 292.593L1082.75 292.591C1098.87 245.016 1112.64 204.352 1142.54 193.057C1153.43 188.944 1162.87 184.45 1171.33 180.417C1181.5 175.574 1190.27 171.397 1198.48 169.344C1205.92 164.244 1215.22 159.318 1223.65 154.849C1236.08 148.263 1246.63 142.668 1246.63 138.972C1246.63 136.391 1246.11 134.446 1245.67 132.793C1244.7 129.174 1244.11 126.951 1250.16 122.513C1258.98 116.047 1269.56 91.3581 1273.67 79.0138C1277.79 66.6695 1326.58 39.0419 1371.84 14.3533C1415.05 -9.21466 1463.08 2.03609 1487.29 7.70819C1488.44 7.97787 1489.54 8.23495 1490.58 8.47507C1502.94 11.3281 1509.32 11.6168 1516.08 11.9226C1521.85 12.1839 1527.9 12.4576 1538.19 14.3533C1548.8 16.3064 1552.38 24.7483 1555.36 31.7595C1558.65 39.5197 1561.2 45.527 1571.7 39.0419C1591.69 26.6976 1609.32 29.0489 1657.52 59.6157C1696.08 84.0691 1716.7 122.709 1722.18 138.972C1758.63 130.742 1798.01 171.302 1837.98 221.855ZM1004.08 1101.43C1003.52 1129.22 1004.76 1196.36 1014.29 1242.63C1026.2 1300.47 1061.71 1504.43 1063.96 1527.41C1064.35 1531.34 1064.65 1534.87 1064.93 1538.01C1066.25 1553.25 1066.77 1559.24 1071.63 1556.25C1077.48 1552.65 1102.72 1544.99 1109.93 1546.79C1115.7 1548.23 1126.46 1571.73 1131.12 1583.3C1130.21 1599.52 1131.39 1634.22 1143.28 1643.24C1158.16 1654.5 1169.87 1651.35 1169.87 1643.24C1172.28 1659.31 1183.21 1693.35 1207.73 1700.92C1238.38 1710.39 1275.33 1735.63 1292.46 1751.85C1296.49 1755.67 1300.4 1760.25 1304.33 1764.84L1304.33 1764.84L1304.33 1764.84L1304.33 1764.84L1304.33 1764.84L1304.34 1764.84L1304.34 1764.85C1317.07 1779.74 1329.98 1794.84 1347.89 1785.2C1371.33 1772.58 1391.16 1756.81 1384.85 1751.85C1383.18 1750.54 1379.75 1748.44 1375.42 1745.8C1363.35 1738.42 1344.25 1726.74 1336.63 1715.8C1326.26 1700.92 1322.2 1686.05 1322.66 1680.19C1323.11 1674.33 1337.08 1650.9 1347.89 1643.24C1356.55 1637.11 1363.22 1633.17 1365.47 1631.97C1389.51 1628.66 1444.25 1622.5 1470.93 1624.31C1487.71 1625.44 1515.44 1624.75 1540.4 1624.13H1540.4H1540.41H1540.41H1540.41H1540.41H1540.41C1565.07 1623.51 1587.02 1622.96 1593.06 1624.31C1605.23 1627.01 1634.98 1648.64 1640.84 1658.11C1646.7 1667.57 1641.74 1707.68 1627.77 1718.5C1622.69 1722.43 1615.42 1727.01 1608.17 1731.58C1595.46 1739.59 1582.82 1747.55 1582.25 1751.85C1582.15 1752.61 1582.03 1753.36 1581.92 1754.09C1581.05 1759.84 1580.31 1764.73 1586.3 1770.33C1593.06 1776.64 1610.19 1795.12 1612.89 1808.19C1614.65 1816.68 1617.36 1813.75 1621.02 1809.79C1622.99 1807.66 1625.24 1805.23 1627.77 1804.13C1629.96 1803.17 1636.46 1798.14 1645.56 1791.11L1645.56 1791.11L1645.57 1791.11C1666.44 1774.98 1700.96 1748.32 1728.27 1736.08C1736.74 1732.28 1745.86 1728.83 1755 1725.38L1755.01 1725.38C1788.14 1712.87 1821.52 1700.26 1825.44 1670.25C1846.77 1652.25 1889.64 1612.25 1890.44 1596.25C1890.76 1589.88 1889.86 1583.2 1889 1576.85C1887.17 1563.3 1885.54 1551.24 1896.44 1546.79C1901.89 1544.57 1905.82 1545.5 1909.5 1546.38C1916.66 1548.09 1922.9 1549.58 1937.53 1527.41C1946.78 1513.39 1962.39 1497.72 1977.82 1482.24C1999.37 1460.61 2020.57 1439.33 2023.61 1423.37C2025.7 1412.41 2025.7 1392.69 2025.7 1371.8C2025.7 1340.47 2025.7 1306.5 2032.74 1295.55C2044.48 1277.29 2071.87 1212.07 2071.87 1195.12C2071.87 1187.76 2070.15 1176.92 2068.31 1165.33C2065.91 1150.19 2063.31 1133.76 2064.04 1122.08C2064.22 1119.3 2064.47 1115.96 2064.74 1112.17C2066.54 1087.74 2069.69 1044.83 2064.04 1017.73C2063.69 1016.03 2063.31 1014.19 2062.9 1012.22C2062.55 1010.54 2062.18 1008.76 2061.8 1006.91C2054.42 971.309 2040.95 906.305 2032.74 878.172C2023.61 846.869 1994.92 726.873 1993.61 694.266C1993.31 686.656 1993.36 676.56 1993.42 665.104V665.101V665.098V665.096V665.093V665.09V665.087C1993.61 627.459 1993.87 575.178 1981.87 548.185C1966.22 512.968 1861.88 359.061 1788.84 322.541C1760.43 308.337 1737.55 295.317 1719.04 284.786L1719.04 284.785C1689.95 268.238 1671.67 257.833 1659.71 258.63C1651.38 259.186 1637.58 261.237 1622.66 263.452L1622.66 263.452C1602.59 266.436 1580.49 269.719 1567 270.056C1558.65 270.265 1535.36 272.176 1507.97 274.423L1507.97 274.423L1507.97 274.423C1458.15 278.509 1394.77 283.709 1383.01 281.813C1378.03 281.813 1370.79 281.512 1362.66 281.174H1362.66H1362.66L1362.66 281.174H1362.66H1362.66C1342.96 280.354 1318 279.316 1307.18 281.813C1291.9 285.34 1203.14 354.115 1188.44 385.858C1185.52 392.168 1182.34 399.478 1178.95 407.269C1165.31 438.668 1148.26 477.891 1130.83 491.078C1124.48 495.883 1118.08 501.64 1111.97 507.896C1108.15 531.657 1098.77 572.689 1082.1 604.642C1068.3 631.098 1050.8 643.583 1037.44 648.532C1032.97 665.328 1029.34 684.475 1027.38 706.221C1022.19 763.665 1023.23 804.054 1023.88 829.408C1024.19 841.415 1024.42 850.05 1023.85 855.528C1023.66 857.382 1023.22 861.327 1022.6 866.932C1017.51 912.852 1000.09 1070.17 1004.08 1101.43ZM1039.5 641.15C1050.8 635.807 1065.04 624.368 1076.78 601.867C1091.12 574.39 1099.99 539.794 1104.47 515.981C1101.6 519.227 1098.85 522.548 1096.23 525.89C1094.66 532.462 1091.92 542.67 1088.34 553.507C1083.59 567.896 1077.26 583.664 1070.05 593.441C1065.22 599.993 1058.53 604.261 1051.69 606.976C1047.45 616.986 1043.25 628.335 1039.5 641.15ZM1054.05 601.538C1058.94 599.075 1063.43 595.678 1066.83 591.068C1073.63 581.845 1079.8 566.612 1084.54 552.252C1086.65 545.864 1088.46 539.703 1089.91 534.402C1084.69 541.838 1080.35 549.15 1077.34 555.738C1075.67 559.389 1073.26 563.817 1070.39 569.104L1070.39 569.106L1070.38 569.11L1070.38 569.11C1065.77 577.594 1059.95 588.291 1054.05 601.538Z" fill="#373043"/>
<path fill-rule="evenodd" clip-rule="evenodd" d="M1282.78 972.656C1288.28 964.767 1291.51 955.172 1291.51 944.823C1291.51 933.354 1287.54 922.811 1280.91 914.49C1272.84 910.759 1252.01 901.982 1236.59 901.982C1236.22 901.982 1235.85 901.982 1235.5 901.982C1222.62 901.975 1216.61 901.972 1208.01 910.759C1199.41 919.541 1194.11 931.563 1194.11 944.823C1194.11 961.525 1202.39 975.907 1215.21 984.68C1223.82 985.86 1232.56 985.642 1242.7 985.205C1261.33 984.112 1267.19 983.019 1282.78 972.656Z" fill="#219653"/>
<path d="M1217.3 986.086C1217.32 986.088 1217.34 986.088 1217.37 986.086L1222.67 985.744C1222.92 985.728 1223.12 985.53 1223.14 985.281C1223.16 985.032 1222.99 984.807 1222.74 984.756L1217.54 983.66C1205.41 975.324 1197.61 961.721 1197.61 945.921C1197.61 933.341 1202.64 921.94 1210.79 913.607C1214.86 909.45 1218.14 907.545 1221.78 906.59C1225.59 905.592 1229.95 905.577 1236.5 905.58C1236.85 905.58 1237.22 905.581 1237.59 905.581C1244.9 905.581 1253.66 907.677 1261.73 910.312C1269.4 912.817 1276.25 915.747 1280.32 917.608C1286.39 925.429 1290.01 935.249 1290.01 945.921C1290.01 955.758 1288.14 964.01 1282.97 971.453L1280.76 973.378C1280.59 973.53 1280.54 973.78 1280.65 973.985C1280.76 974.189 1280.99 974.295 1281.21 974.24L1283.46 973.693C1283.53 973.677 1283.59 973.648 1283.64 973.607L1288.01 970.335C1288.05 970.303 1288.09 970.264 1288.12 970.221C1291.01 966.085 1292.74 962.722 1293.74 959.018C1294.74 955.322 1295.01 951.318 1295.01 945.921C1295.01 933.866 1290.84 922.778 1283.87 914.03C1283.62 913.725 1283.31 913.482 1282.96 913.318C1278.87 911.428 1271.55 908.26 1263.28 905.559C1255.06 902.873 1245.7 900.581 1237.59 900.581C1237.22 900.581 1236.86 900.58 1236.5 900.58L1236.28 900.58L1236.23 900.58C1230.02 900.577 1225.02 900.574 1220.51 901.753C1215.79 902.992 1211.75 905.478 1207.22 910.109C1198.19 919.339 1192.61 931.982 1192.61 945.921C1192.61 961.344 1199.33 974.895 1210.08 984.209C1210.87 984.891 1211.53 985.289 1212.6 985.548C1213.62 985.795 1215.03 985.916 1217.3 986.086Z" fill="#373043" stroke="#373043" stroke-linejoin="round"/>
<path d="M1184.03 912.708C1149.75 929.294 1141.4 943.736 1132.65 956.636C1144.72 958.601 1148.93 958.601 1157.92 955.233C1157.92 951.864 1162.13 945.407 1184.03 929.405C1205.93 913.403 1233.43 912.708 1260.1 912.708C1286.77 912.708 1319.34 938.969 1328.6 945.407C1336.01 950.557 1331.69 956.349 1328.6 958.601C1340.11 959.069 1363.75 959.724 1366.22 958.601C1369.31 957.198 1369.03 951.302 1368.75 947.372C1368.47 943.442 1359.56 940.351 1351.27 938.969C1342.97 937.586 1313.95 923.765 1282.16 912.708C1250.37 901.651 1226.87 891.976 1184.03 912.708Z" fill="#373043"/>
<path d="M1806.27 936.372C1806.27 949.891 1800.92 962.161 1792.22 971.179C1775.7 975.782 1769.5 977.047 1755.33 977.047C1742.13 977.047 1733.06 977.047 1721.97 973.086C1712.14 963.931 1705.98 950.87 1705.98 936.372C1705.98 921.525 1712.44 908.184 1722.69 899.003C1731.56 891.059 1742.48 893.67 1755.33 893.67C1766.48 893.67 1777.58 889.87 1785.91 896.03C1798.26 905.164 1806.27 919.833 1806.27 936.372Z" fill="#219653"/>
<path d="M1722.5 973.067C1712.66 963.912 1706.51 950.851 1706.51 936.353C1706.51 921.505 1712.96 908.165 1723.21 898.983C1732.09 891.039 1743.01 893.651 1755.85 893.651C1767.01 893.651 1778.11 889.851 1786.44 896.011C1798.79 905.144 1806.79 919.813 1806.79 936.353C1806.79 949.872 1801.44 962.141 1792.75 971.159" stroke="#373043" stroke-width="6"/>
<path d="M1626.74 961.689C1629.88 966.406 1633.66 965.9 1635.16 965.058L1656.22 961.689C1652.01 958.508 1643.64 951.597 1643.86 949.405C1644.14 946.666 1670.53 925.112 1712.08 905.262C1753.63 885.413 1797.14 907.789 1810.9 913.965C1821.9 918.906 1837.38 933.616 1843.75 940.354C1846.44 941.701 1861 941.966 1867.94 941.93C1857.97 931.341 1820.6 907.67 1800.66 895.835C1780.73 884 1735.88 891.475 1724.67 892.098C1713.46 892.721 1674.84 912.654 1658.02 925.112C1641.2 937.57 1622.51 945.668 1620.64 949.405C1618.78 953.142 1622.81 955.794 1626.74 961.689Z" fill="#373043"/>
<path d="M1282.54 1550.79C1283.95 1552.71 1288.18 1556.73 1293.79 1557.4C1300.81 1558.25 1312.04 1564.02 1322.43 1557.4C1332.81 1550.79 1358.92 1547.3 1365.66 1545.89C1372.4 1544.49 1399.91 1534.95 1409.45 1534.95C1419 1534.95 1447.91 1538.03 1485.25 1538.03C1522.59 1538.03 1569.75 1529.89 1575.93 1531.3C1582.1 1532.7 1666.88 1545.61 1682.61 1550.1C1695.18 1553.7 1725.84 1548.23 1739.59 1545.05" stroke="#373043" stroke-width="4" stroke-linecap="round"/>
<circle cx="1755.39" cy="936.57" r="20.3114" fill="#373043"/>
<circle cx="1241.25" cy="944.91" r="20.3114" fill="#373043"/>
<path d="M1299.57 740.182C1290.02 736.743 1254.81 734.135 1238.4 733.261C1159.09 737.324 1112.36 795.581 1106.63 804.177C1102.05 811.054 1096.44 835.061 1094.21 846.204C1096.44 844.453 1102.05 840.282 1106.63 837.608C1112.36 834.265 1135.45 826.025 1146.27 819.937C1161.55 811.341 1178.75 804.177 1203.1 791.283C1224.34 780.036 1299.57 795.581 1304.35 795.581C1309.12 795.581 1334.44 803.222 1338.26 804.177C1342.08 805.132 1354.5 786.507 1355.93 780.776C1357.36 775.045 1346.38 758.33 1343.03 754.031C1339.69 749.733 1311.51 744.48 1299.57 740.182Z" fill="#373043"/>
<path d="M1665.88 726.332C1634.44 734.334 1626.72 760.718 1622.89 775.045C1652.35 777.592 1700.17 776.86 1705.52 770.747C1712.2 763.106 1726.53 764.538 1773.81 756.897C1821.09 749.256 1859.77 784.597 1877.44 784.119C1895.12 783.642 1912.79 796.536 1911.83 793.193C1910.88 789.85 1892.25 755.464 1844.97 726.332C1797.69 697.2 1718.41 712.96 1665.88 726.332Z" fill="#373043"/>
<path d="M1153.76 1819.56C1156.57 1854.66 1162.68 1927.87 1164.68 1939.83C1167.17 1954.78 1194.58 2085.59 1199.56 2099.91C1204.54 2114.24 1245.03 2233.22 1246.28 2243.8C1247.27 2252.28 1246.69 2265.61 1246.28 2271.21C1254.17 2295.92 1271.07 2348.33 1275.55 2360.29C1280.04 2372.25 1296.52 2410.12 1304.21 2427.56C1317.5 2441.68 1349.43 2472.16 1370.86 2481.13C1373.56 2487.15 1380.82 2500.94 1388.3 2507.92C1397.64 2516.64 1416.95 2533.46 1422.56 2545.29C1428.17 2557.13 1438.13 2583.29 1441.87 2588.27C1445.61 2593.26 1463.67 2613.81 1466.16 2623.78C1468.16 2631.75 1476.96 2681.5 1481.11 2705.38L1514.75 2661.15C1514.13 2655.13 1514.5 2640.22 1520.98 2628.76C1529.08 2614.43 1577.66 2557.75 1602.58 2545.29C1627.5 2532.83 1640.58 2536.57 1654.28 2516.64C1667.98 2496.71 1703.49 2456.84 1714.7 2447.5C1725.91 2438.15 1742.11 2431.3 1767.03 2392.68C1791.94 2354.06 1829.32 2260.62 1846.76 2242.56C1864.2 2224.49 1874.79 2195.84 1879.15 2183.38C1883.51 2170.92 1925.87 2089.32 1934.59 2057.56C1943.31 2025.79 1944.56 1802.16 1955.14 1789.71" stroke="#373043" stroke-width="8" stroke-linecap="round"/>
<path d="M1145.33 1746.14C1099.26 1741.53 996.885 1733.7 955.973 1739.23C904.834 1746.14 856.459 1768.25 839.873 1780.69C823.288 1793.13 751.416 1805.57 729.302 1793.13C707.188 1780.69 698.895 1805.57 646.373 1793.13C593.852 1780.69 541.331 1754.43 448.727 1802.81C374.644 1841.51 228.236 1896.82 184.737 2012.89C141.239 2128.96 55 2269.87 55 2269.87" stroke="#373043" stroke-width="8" stroke-linecap="round"/>
<path d="M1953.63 1763.65C1962.02 1769.61 1980.11 1787.7 1985.31 1812.4C1990.51 1837.1 2014.56 1866.02 2025.94 1877.39L2031.62 1895.27C2057.62 1901.5 2119.21 1918.02 2157.55 1934.27C2205.49 1954.58 2474.41 2103.26 2540.22 2146.32C2592.87 2180.76 2817.17 2365.01 2834 2383" stroke="#373043" stroke-width="8" stroke-linecap="round"/>
<path d="M1144.56 1758.29C1127.25 1759.7 1089.46 1769.1 1076.74 1795.38C1060.84 1828.23 1047.74 1898.52 1030.46 1938.08" stroke="#373043" stroke-width="6" stroke-linecap="round"/>
<path d="M1040.24 1910.73C1029.91 1920.2 1018.09 1939.29 1015.41 1956.1C1012.07 1977.11 1006.34 2042.54 1027.35 2126.6C1048.37 2210.65 1096.12 2357.27 1100.9 2380.67C1105.68 2404.07 1113.79 2478.57 1113.79 2482.39C1113.79 2486.21 1114.27 2501.02 1127.17 2493.38C1140.06 2485.74 1154.39 2483.35 1159.16 2479.05C1163.94 2474.75 1184.95 2456.6 1186.86 2446.1C1188.77 2435.59 1192.12 2430.82 1191.64 2422.7C1191.26 2416.2 1182.25 2316.2 1177.79 2267.01" stroke="#373043" stroke-width="6" stroke-linecap="round"/>
<path d="M1235.1 2253.16C1238.92 2250.93 1244.84 2245.51 1237.97 2241.69C1229.37 2236.92 1200.24 2239.31 1191.16 2249.33C1182.09 2259.36 1168.72 2271.3 1167.28 2284.68C1165.85 2298.05 1160.12 2343.42 1173.97 2377.33C1185.05 2404.45 1186.87 2423.33 1186.39 2429.38" stroke="#373043" stroke-width="4" stroke-linecap="round"/>
<path d="M1262.23 3053.02C1267.1 3014.56 1279.94 2924.81 1292.29 2873.46C1304.64 2822.12 1330.47 2807.66 1341.85 2806.84L1352.41 2782.47C1353.22 2785.45 1356.96 2789.62 1365.41 2782.47C1375.97 2773.53 1404.41 2771.1 1421.47 2772.72C1438.53 2774.34 1471.84 2752.41 1514.9 2722.35C1549.35 2698.3 1578 2658.16 1588.02 2641.1H1618.08L1653.83 2656.54L1669.27 2650.85C1684.71 2664.66 1692.02 2651.66 1698.52 2650.85C1705.02 2650.04 1744.01 2636.23 1779.76 2606.98C1808.36 2583.58 1814.43 2540.36 1813.89 2521.67L1823.78 2427.13C1825.54 2425.21 1829.1 2420.7 1829.23 2418.06C1829.39 2414.76 1827.41 2406.5 1829.23 2404.85C1831.04 2403.2 1833.68 2400.89 1833.85 2398.91" stroke="#373043" stroke-width="6" stroke-linecap="round"/>
<path d="M1344.04 2790.1L1347.69 2777.19C1348.44 2774.94 1351.85 2770.45 1359.48 2770.45C1369.03 2770.45 1396.82 2758.1 1400.19 2754.17C1403.56 2750.24 1428.54 2738.16 1435 2734.23C1440.16 2731.09 1467.23 2714.64 1480.43 2706.13" stroke="#373043" stroke-width="4" stroke-linecap="round"/>
<path d="M1825.6 2456.51C1825.43 2452.71 1826.26 2444.95 1830.88 2444.29C1836.65 2443.47 1847.38 2439.67 1858.77 2450.56C1870.15 2461.46 1874.28 2462.94 1872.3 2466.74C1870.32 2470.53 1863.39 2484.39 1851.17 2489.18C1838.96 2493.97 1825.93 2494.79 1822.3 2499.41" stroke="#373043" stroke-width="4" stroke-linecap="round" stroke-linejoin="round"/>
<path d="M1820.61 2512.35C1824.39 2510.27 1834.01 2505.32 1842.21 2502.1C1852.46 2498.07 1871.5 2499.9 1878.83 2491.48C1886.15 2483.06 1891.28 2471.71 1893.11 2459.26C1894.94 2446.81 1904.82 2387.85 1902.26 2380.9C1899.7 2373.94 1888.71 2352.34 1888.71 2348.68" stroke="#373043" stroke-width="6" stroke-linecap="round" stroke-linejoin="round"/>
<path d="M2030.88 1894.44C2035.06 1913.37 2043.46 1953.62 2043.59 1963.26C2043.75 1975.3 2048.38 2041.81 2043.59 2056C2038.8 2070.19 2031.15 2150.58 1996.37 2219.42C1968.54 2274.49 1921.79 2348.07 1901.9 2377.97" stroke="#373043" stroke-width="6" stroke-linecap="round" stroke-linejoin="round"/>
<path d="M1313.44 1946.25C1326.77 1964.92 1358.24 2013.45 1377.44 2058.25C1401.44 2114.25 1389.44 2150.25 1461.44 2194.25C1519.04 2229.45 1556.11 2248.92 1581.44 2246.25" stroke="#373043" stroke-width="2" stroke-linecap="round" stroke-linejoin="round"/>
<path d="M2126.3 1061.59C2114.75 1053.14 2099.02 1058.07 2092.61 1061.59L2085.76 1133.72L2079.17 1203.71L2058.98 1466.09C2063.73 1466.26 2076.66 1464 2090.44 1453.62C2107.65 1440.64 2114.67 1423.59 2116.58 1414.43C2118.49 1405.26 2123.38 1391.27 2133.37 1372.69C2143.36 1354.11 2149.52 1305.25 2151.44 1288.96C2153.35 1272.67 2149.95 1219.74 2147.82 1206.51C2145.7 1193.27 2152.29 1141.36 2152.5 1133.72C2152.71 1126.09 2153.58 1115.39 2151.17 1100.98C2148.77 1086.57 2140.74 1072.16 2126.3 1061.59Z" stroke="#373043" stroke-width="4" stroke-linecap="round" stroke-linejoin="round"/>
<path d="M2092.27 1198.3C2089.61 1200.51 2085.49 1206.14 2090.27 1210.92C2096.25 1216.89 2106.87 1227.51 2104.55 1250.08C2102.22 1272.66 2087.29 1281.62 2086.95 1285.6C2086.62 1289.58 2092.27 1293.57 2092.27 1299.54C2092.27 1305.52 2080.32 1307.84 2083.64 1311.82" stroke="#373043" stroke-width="2" stroke-linecap="round" stroke-linejoin="round"/>
<path d="M2110.6 1109.32C2111.43 1123.48 2113.81 1154.99 2116.69 1167.74C2120.3 1183.67 2136.65 1244.75 2137.76 1270.64C2138.87 1296.53 2131.11 1330.05 2115.03 1351.63C2102.17 1368.89 2101.35 1375.42 2102.56 1376.53" stroke="#373043" stroke-linecap="round" stroke-linejoin="round"/>
<path d="M2102.63 1080.11C2106.86 1076.99 2116.74 1072.34 2122.34 1078.74C2129.35 1086.74 2140.27 1095.33 2137.83 1119.72C2135.38 1144.11 2127.56 1170.84 2129.19 1184.5" stroke="#373043" stroke-width="2" stroke-linecap="round" stroke-linejoin="round"/>
<path d="M957.379 1052.58C961.34 1047.59 972.661 1054.66 977.827 1058.83L997.413 1159.77L1006.24 1263.95V1306.35C998.346 1293.29 980.926 1262.44 974.383 1243.5C966.204 1219.82 970.939 1194.42 971.154 1185.17C971.37 1175.91 963.406 1125.76 963.406 1120.81C963.406 1115.86 952.429 1058.83 957.379 1052.58Z" stroke="#373043" stroke-width="3" stroke-linecap="round" stroke-linejoin="round"/>
<ellipse cx="1226.27" cy="942.412" rx="8.33179" ry="5.84218" fill="white"/>
<ellipse cx="1735.08" cy="937.491" rx="8.33179" ry="5.84218" fill="white"/>
<circle cx="1217.44" cy="926.295" r="3.49982" fill="white"/>
<circle cx="1740.56" cy="919.754" r="3.49982" fill="white"/>
<path d="M1229.95 2369.96C1235.66 2380.62 1239.71 2390.84 1241.67 2398.72C1242.64 2402.66 1243.08 2405.97 1242.96 2408.42C1242.83 2410.95 1242.14 2412.23 1241.28 2412.69C1240.42 2413.16 1238.97 2413.02 1236.79 2411.72C1234.68 2410.46 1232.17 2408.27 1229.43 2405.27C1223.96 2399.28 1217.71 2390.24 1211.99 2379.57C1206.28 2368.91 1202.23 2358.69 1200.28 2350.82C1199.3 2346.87 1198.87 2343.57 1198.99 2341.11C1199.11 2338.58 1199.8 2337.3 1200.67 2336.84C1201.53 2336.38 1202.98 2336.51 1205.15 2337.81C1207.26 2339.07 1209.77 2341.26 1212.51 2344.27C1217.99 2350.26 1224.24 2359.29 1229.95 2369.96Z" stroke="#373043" stroke-width="2"/>
<path d="M1199.18 2340.66C1198.74 2339.62 1198.48 2337.13 1200.99 2335.55C1203.5 2333.96 1207.54 2330.81 1209.24 2329.44C1210.07 2328.17 1212.44 2326.14 1215.35 2328.12C1218.98 2330.59 1232.67 2340.83 1239.28 2354.03C1245.88 2367.23 1252.31 2375.65 1255.12 2385.88C1257.92 2396.11 1260.23 2402.87 1255.12 2406.17C1251.03 2408.81 1247.25 2411.12 1245.88 2411.95C1244.06 2412.5 1240.2 2413.44 1239.28 2412.78" stroke="#373043" stroke-width="2" stroke-linecap="round" stroke-linejoin="round"/>
<path d="M1368.37 2846.16C1370.36 2805.79 1393.7 2794.04 1405.12 2793.21C1441.87 2793.21 1446.85 2828.09 1441.25 2852.38C1435.64 2876.68 1410.72 2887.27 1408.86 2887.89C1406.99 2888.51 1365.87 2896.61 1368.37 2846.16Z" stroke="#373043" stroke-width="2" stroke-linecap="round" stroke-linejoin="round"/>
<path d="M1423.18 2820.62C1419.86 2817.29 1411.22 2812.64 1403.25 2820.62C1393.28 2830.58 1387.05 2852.38 1397.02 2861.73" stroke="#373043" stroke-width="2" stroke-linecap="round" stroke-linejoin="round"/>
<path d="M1411.97 2829.34C1413.22 2834.53 1413.96 2846.16 1406.99 2851.14" stroke="#373043" stroke-width="2" stroke-linecap="round" stroke-linejoin="round"/>
</svg>
