<svg width="2835" height="3064" viewBox="0 0 2835 3064" fill="none" xmlns="http://www.w3.org/2000/svg">
<path d="M853.139 2329.1H854.27V2335.15C854.27 2335.96 854.023 2336.6 853.531 2337.06C853.043 2337.52 852.391 2337.75 851.574 2337.75C850.727 2337.75 850.066 2337.54 849.594 2337.1C849.121 2336.67 848.885 2336.06 848.885 2335.28H850.01C850.01 2335.77 850.143 2336.15 850.408 2336.42C850.678 2336.7 851.066 2336.83 851.574 2336.83C852.039 2336.83 852.414 2336.69 852.699 2336.39C852.988 2336.1 853.135 2335.69 853.139 2335.16V2329.1Z" fill="#373043"/>
<path d="M51.714 2271.6C51.3949 2270.55 51.5101 2269.37 52.1305 2268.35L52.6346 2268.66L52.1312 2268.35L52.1339 2268.35L52.3744 2267.95L52.7965 2267.26L53.1 2266.76C53.7389 2265.7 54.683 2264.14 55.901 2262.11C58.337 2258.04 61.8678 2252.09 66.2416 2244.6C74.9901 2229.6 87.1085 2208.4 100.584 2183.57C127.552 2133.89 159.882 2069.84 181.534 2012.06C203.726 1952.85 252.047 1909.41 303.633 1876.05C340.427 1852.26 379.338 1833.33 411.925 1817.47L411.943 1817.47C424.956 1811.14 436.96 1805.3 447.417 1799.83C494.321 1775.33 531.33 1769.62 563.388 1771.74C586.396 1773.27 606.955 1778.89 626.317 1784.19C633.639 1786.19 640.79 1788.14 647.838 1789.81C673.302 1795.84 687.811 1792.82 698.73 1789.84C699.199 1789.72 699.667 1789.59 700.134 1789.46C700.643 1789.31 701.15 1789.17 701.657 1789.03L701.66 1789.03L701.664 1789.03L701.668 1789.03C706.054 1787.79 710.369 1786.57 714.614 1786.22C720.119 1785.76 725.581 1786.72 731.805 1790.22C736.47 1792.84 744.308 1794.38 754.272 1794.76C764.086 1795.14 775.42 1794.38 786.663 1792.85C797.898 1791.32 808.935 1789.02 818.141 1786.36C827.495 1783.66 834.49 1780.71 838.016 1778.06C846.725 1771.53 863.346 1762.74 884.066 1754.73C904.852 1746.69 930.038 1739.34 955.98 1735.84C976.857 1733.02 1013.04 1733.62 1049.46 1735.46C1057.85 1735.88 1066.28 1736.38 1074.57 1736.91C1068.18 1722.8 1062.52 1709.24 1057.98 1696.83C1029.17 1617.91 1024.57 1519.15 1024.57 1511.33C1024.57 1506.25 1013.66 1396.5 1002.75 1300.1C994.003 1285.05 980.507 1260.23 974.926 1244.07C968.342 1225.01 970.126 1204.84 971.184 1192.87V1192.87L971.185 1192.86L971.187 1192.84C971.442 1189.95 971.655 1187.54 971.697 1185.74C971.825 1180.22 969.045 1160.16 966.78 1143.81L966.779 1143.81L966.779 1143.81C965.246 1132.74 963.948 1123.38 963.948 1121.38C963.948 1120.07 963.179 1115.11 962.139 1108.41C959.252 1089.79 954.282 1057.74 957.922 1053.15C958.604 1052.29 959.505 1051.79 960.556 1051.57C957.308 1030.21 955.78 1007.15 957.546 979.491C958.993 956.82 959.203 936.161 959.422 914.699V914.687C959.721 885.307 960.036 854.421 963.559 814.811C960.303 803.625 957.508 790.855 957.984 781.825C958.485 772.296 964.515 762.006 970.752 754.013C972.734 740.375 975.076 725.81 977.846 710.163C977.495 709.657 977.139 709.133 976.779 708.592C957.155 679.156 968.771 632.364 974.789 608.125C975.575 604.958 976.266 602.176 976.779 599.868C979.131 589.28 993.96 581.81 1010.68 576.468C1024.97 531.531 1042.29 486.77 1061.47 444.562C1062.09 397.255 1065.56 344.156 1075.62 315.532C1078.27 307.967 1080.81 300.484 1083.29 293.164L1083.29 293.162C1099.41 245.587 1113.19 204.923 1143.09 193.628C1153.97 189.515 1163.41 185.021 1171.88 180.988L1171.88 180.987C1182.04 176.145 1190.81 171.968 1199.02 169.915C1206.46 164.816 1215.76 159.891 1224.19 155.422L1224.19 155.421L1224.19 155.42C1236.62 148.834 1247.18 143.239 1247.18 139.543C1247.18 136.962 1246.66 135.017 1246.21 133.364C1245.25 129.745 1244.65 127.522 1250.7 123.084C1259.52 116.617 1270.1 91.9289 1274.22 79.5846C1278.33 67.2403 1327.12 39.6127 1372.38 14.9242C1415.59 -8.64382 1463.62 2.60698 1487.83 8.27904C1488.98 8.54875 1490.08 8.80583 1491.12 9.04594C1503.49 11.899 1509.87 12.1877 1516.62 12.4935C1522.4 12.7547 1528.45 13.0285 1538.74 14.9242C1549.34 16.8772 1552.92 25.3192 1555.9 32.3303C1559.19 40.0906 1561.74 46.0979 1572.24 39.6127C1592.23 27.2685 1609.86 29.6197 1658.06 60.1865C1696.63 84.6399 1717.24 123.28 1722.73 139.543C1759.17 131.313 1798.55 171.873 1838.53 222.426C1860.69 250.456 1863.61 280.67 1860.65 302.382C1879.26 295.882 1909.23 291.469 1928.91 309.338C1932.34 312.449 1935.97 315.709 1939.75 319.103L1939.8 319.147L1939.87 319.208L1939.87 319.21C1968.4 344.811 2005.47 378.077 2028.51 413.446C2054.65 453.556 2083.95 529.271 2088.46 542.341C2092.96 555.41 2107.83 589.212 2120 604.535C2132.17 619.858 2147.94 654.11 2144.34 664.926C2147.19 665.527 2152.99 668.892 2153.35 677.545C2153.63 684.094 2150.26 690.643 2147.57 695.892L2147.57 695.894L2147.57 695.896C2145.81 699.314 2144.34 702.18 2144.34 704.135C2144.34 705.891 2145.22 708.614 2146.29 711.888C2148.23 717.858 2150.77 725.658 2149.61 732.753L2149.17 735.432L2149.17 735.448L2149.16 735.526L2149.15 735.555C2146.45 752.023 2135.35 819.577 2131.75 854.061C2136.63 928.403 2136.16 1010.62 2127.63 1060.27L2127.71 1060.32L2127.81 1060.39C2127.88 1060.45 2127.95 1060.5 2128.03 1060.55C2142.9 1071.43 2151.2 1086.31 2153.69 1101.22C2155.8 1113.87 2155.43 1123.75 2155.15 1131.08C2155.11 1132.23 2155.07 1133.32 2155.04 1134.35C2154.98 1136.59 2154.38 1142.54 2153.62 1150.14L2153.62 1150.16L2153.61 1150.26L2153.6 1150.34C2153.04 1155.89 2152.4 1162.29 2151.82 1168.76C2151.12 1176.55 2150.49 1184.48 2150.17 1191.29C2149.84 1198.16 2149.85 1203.68 2150.34 1206.76C2151.42 1213.49 2152.81 1230.13 2153.68 1247.06C2154.56 1263.94 2154.94 1281.42 2153.97 1289.77C2153.01 1297.92 2150.98 1314.26 2147.94 1330.9C2144.92 1347.44 2140.84 1364.6 2135.67 1374.21C2125.75 1392.67 2120.94 1406.48 2119.08 1415.41C2117.09 1424.95 2109.86 1442.46 2092.18 1455.79C2081.27 1464.01 2070.79 1467.33 2064.17 1468.32C2063.63 1474.97 2063.22 1480.87 2062.98 1485.83C2060.38 1540.61 2031.42 1685.39 2020.98 1725.83C2014.45 1751.13 1998.05 1772.82 1981.81 1790.74C1985.26 1797.13 1988.12 1804.31 1989.77 1812.14C1992.21 1823.72 1999.16 1836.6 2007.15 1848.19C2015.08 1859.72 2023.78 1869.61 2029.31 1875.14L2030 1875.82L2035.29 1892.48C2062.47 1899.08 2122.03 1915.21 2159.66 1931.15C2183.87 1941.41 2263.3 1983.79 2344.66 2028.83C2426.08 2073.91 2509.9 2121.91 2542.95 2143.54C2569.5 2160.91 2637.7 2215.32 2701.17 2267.44C2732.95 2293.54 2763.61 2319.13 2787.39 2339.32C2811.04 2359.41 2828.14 2374.38 2832.55 2379.09C2834.03 2380.67 2833.98 2383.13 2832.46 2384.65L2832.65 2384.8C2833.35 2383.87 2834.04 2382.94 2834.73 2382.01C2834.8 2382.11 2834.86 2382.21 2834.93 2382.32C2527.69 2795.71 2035.61 3063.54 1480.97 3063.54C877.983 3063.54 348.934 2746.97 50.9563 2270.97L51.055 2270.55L51.714 2271.6Z" fill="#FDFBEA"/>
<path d="M0.841394 1486.88C31.1354 1502.96 40.5585 1507.94 0.800781 1486.78L0.841394 1486.88Z" fill="#FDFBEA"/>
<path d="M1264.5 862.903C1260.1 869.738 1253.22 888.095 1260.84 906.842L1277.68 913.433L1293.79 919.291L1328.21 933.938L1335.07 938.513C1335.91 941.442 1336.49 943.491 1336.7 944.26C1337.75 947.988 1335.35 952.289 1334.01 954.696C1333.61 955.421 1333.3 955.975 1333.21 956.289C1332.82 957.647 1326.03 968.317 1321.38 965.989C1316.72 963.661 1310.57 964.243 1307.41 968.317C1304.88 971.577 1284.95 978.278 1275.3 981.222L1282.89 991.123C1285.8 997.724 1281.68 1009.06 1279.26 1013.9C1286.19 1011.15 1302.16 1007.89 1310.57 1016.87C1320.44 1027.39 1311.79 1047.74 1304.38 1065.2C1303.89 1066.36 1303.4 1067.5 1302.93 1068.62C1296.82 1083.14 1272.36 1100.14 1260.9 1106.83C1269.82 1102.69 1292.23 1090.78 1310.57 1076.26C1333.49 1058.11 1399.4 974.059 1396.53 950.18C1394.24 931.019 1382.71 929.078 1373.8 927.579C1371.61 927.21 1369.58 926.867 1367.88 926.301C1359.28 923.436 1344.96 909.108 1339.23 898.602C1335.07 890.977 1326.4 887.492 1321.5 886.435C1320.44 885.29 1319.24 884.196 1317.89 883.148C1303.45 871.974 1298.27 869.44 1297.48 869.571C1290.53 867.137 1274.21 862.395 1264.5 862.903Z" fill="#D5D2C7"/>
<path d="M1766.19 751.953C1715.94 772.301 1612.95 821.968 1602.99 857.847C1590.53 902.697 1590.53 915.155 1602.99 955.021L1624.17 962.496L1688.95 982.429C1684.8 985.751 1678.98 993.392 1688.95 997.378C1698.92 1001.36 1722.1 1005.57 1732.45 1007.17C1713.41 1015.23 1671.67 1030.6 1657.02 1027.67C1656.71 1027.61 1656.4 1027.55 1656.11 1027.49C1670.31 1046.28 1704.94 1082.05 1745.63 1094.32C1799.09 1110.43 1815.93 1136.79 1815.2 1147.77C1814.47 1158.76 1793.23 1209.29 1750.02 1209.29C1706.82 1209.29 1684.12 1189.52 1683.38 1221.01C1682.65 1252.5 1824.72 1376.26 1824.72 1393.1C1824.72 1409.94 1684.85 1412.87 1670.93 1410.68C1657.02 1408.48 1561.82 1294.24 1573.54 1285.45C1585.25 1276.66 1603.46 1282.52 1613.81 1277.39C1624.17 1272.27 1628.46 1259.09 1629.92 1243.71C1631.39 1228.33 1602.04 1197.4 1596.43 1194.43C1590.82 1191.46 1558.48 1201.36 1550.89 1206.97C1544.81 1211.46 1529.43 1227.98 1522.5 1235.68C1526.07 1201.58 1524.1 1130.67 1487.72 1119.89C1442.24 1106.42 1507.37 1009.68 1502.88 955.021C1498.39 900.358 1481.54 882.952 1492.21 877.899C1502.88 872.846 1505.69 878.461 1506.81 863.862C1507.93 849.264 1526.46 856.563 1530.39 851.51C1534.32 846.457 1560.71 789.188 1644.37 757.184C1711.29 731.581 1753.47 743.029 1766.19 751.953Z" fill="#D5D2C7"/>
<path d="M1623 2124C1641.22 2072.83 1635.83 2004.17 1635 1975L1952 1808L1949.5 1839.5L1943 1988L1935 2064L1919.5 2103.5L1861.5 2223L1828.5 2273.5C1773.5 2250.5 1664.5 2421.5 1662.5 2391C1660.5 2360.5 1715 2258.5 1715 2225.5C1715 2198.57 1685.88 2179.5 1668 2199.5C1630 2242 1637.5 2245.5 1623 2236C1608.5 2226.5 1599.5 2190 1623 2124Z" fill="#D5D2C7"/>
<path d="M1374 2236C1315.2 2194.4 1230.83 1976.67 1196 1873L1185.5 1854L1160 1864.5L1163.5 1918.5L1170.5 1967.5L1185.5 2036L1199.5 2100.5L1248 2243.5V2273.5L1305 2429.5L1349.5 2468L1373 2481.5L1378 2493.5L1390.5 2508L1422 2540L1439.5 2584L1459.5 2610.5L1469 2629.5L1484 2704L1511 2671L1516.5 2652C1515.67 2641.33 1512.5 2613.8 1506.5 2589C1500.5 2564.2 1442.33 2501.33 1414 2473C1425.17 2411.33 1432.8 2277.6 1374 2236Z" fill="#D5D2C7"/>
<path d="M1595.01 206.172C1655.82 247.636 1787.4 357.102 1827.21 463.251C1876.96 595.936 1849.32 725.858 1810.62 731.386C1841.08 749.274 1904.91 795.124 1916.61 835.422C1931.24 885.794 1936.87 937.579 1934.37 953.775C1933.98 956.329 1933.7 958.821 1933.43 961.169C1932 973.704 1931.04 982.103 1916.61 973.708C1903.14 965.864 1887.55 934.105 1880.48 919.701C1878.56 915.802 1877.27 913.175 1876.82 912.637C1874.68 910.115 1853.43 888.521 1833.8 879.002C1814.16 869.482 1773.1 856.839 1767 855.5C1767.06 855.671 1767.1 855.849 1767.12 856.034C1733.47 844.762 1719.3 849.656 1673.24 865.568C1670.76 866.426 1668.18 867.317 1665.5 868.238C1645.62 875.078 1629 926.405 1623 950.738L1640.5 945.238C1640.74 944.682 1640.97 943.987 1641.25 943.164C1644.12 934.521 1651.67 911.828 1727 889C1727.07 888.964 1727.13 888.927 1727.2 888.891C1773.34 884.759 1784.08 892.022 1791.81 897.249C1792.95 898.014 1794.01 898.736 1795.12 899.371C1806.01 905.642 1842.98 932.72 1844.32 940.831C1838.7 951.79 1821.98 973.708 1800.07 973.708C1804.14 985.838 1807.15 1010.54 1786.64 1012.3C1797.71 1012.19 1821.82 1009.49 1829.74 999.499C1839.64 987.015 1898.85 1012.54 1916.61 1059.66C1924.58 1080.81 1908.72 1130.1 1888.81 1191.96C1864.36 1267.96 1833.8 1362.92 1833.8 1448.01C1833.8 1566.98 1823.59 1560.48 1809.07 1551.25C1804.75 1548.5 1800.05 1545.51 1795.12 1545.51H1743.21C1710.43 1560.38 1637.81 1589.95 1609.54 1589.18C1592.34 1592.68 1563.11 1606.57 1583.75 1634.07C1597.98 1653.05 1580.5 1684.53 1564.55 1713.27C1551.6 1736.62 1539.65 1758.15 1546.49 1769.71C1558.72 1790.34 1615.27 1829.25 1642.01 1846.12L1885.58 1692.34L2031.72 1530.92L2048.91 1386.69L2080.43 1252.97L2091.89 1037.1L2057.51 587.219L1957.21 422.932L1764.27 260.555L1595.01 198.469V206.172Z" fill="#D5D2C7"/>
<path d="M1116.98 948.825C1118.98 943.158 1125.38 929.425 1134.98 919.825C1146.98 907.825 1172.98 881.825 1193.98 876.825C1214.98 871.825 1252.98 860.825 1266.98 862.825C1280.98 864.825 1304.98 866.825 1319.98 885.825" stroke="#373043" stroke-width="2" stroke-linecap="round"/>
<path d="M1649.98 885.825C1649.98 882.158 1654.78 872.825 1673.98 864.825C1697.98 854.825 1734.98 846.825 1746.98 850.825C1758.98 854.825 1838.98 869.825 1863.98 900.825L1889.98 923.825" stroke="#373043" stroke-width="2" stroke-linecap="round"/>
<path d="M1367.98 1145.83C1356.98 1154.49 1334.18 1176.23 1330.98 1193.83C1326.98 1215.83 1319.98 1232.83 1330.98 1254.83C1339.78 1272.43 1367.32 1290.16 1379.98 1296.83" stroke="#373043" stroke-width="3" stroke-linecap="round"/>
<path d="M1559.98 1078.83C1571.64 1092.14 1596.4 1124.89 1602.17 1149.41C1620.65 1159.02 1657.33 1185.73 1656.25 1215.66C1654.9 1253.07 1649.94 1267.94 1619.29 1292.73" stroke="#373043" stroke-width="3" stroke-linecap="round"/>
<path d="M1401.61 1242.25C1404.86 1247.3 1408.07 1246.16 1409.28 1244.95C1416.94 1236.39 1434.06 1237.29 1441.27 1234.14C1434.51 1223.32 1394.85 1201.69 1392.15 1201.69C1389.45 1201.69 1387.19 1208.9 1387.64 1217.91C1388.09 1226.93 1397.56 1235.94 1401.61 1242.25Z" fill="#373043"/>
<path d="M1528.03 1219.77C1522.78 1226.13 1525.84 1230.02 1528.03 1231.17C1546.34 1229.1 1552.56 1234.97 1561.55 1241.54C1570.53 1248.1 1572.26 1238.43 1578.13 1233.24C1584.01 1228.06 1586.08 1224.95 1586.43 1219.77C1586.77 1214.59 1584.7 1203.53 1572.26 1199.73C1559.82 1195.93 1549.11 1201.8 1544.62 1203.53C1540.12 1205.26 1534.6 1211.82 1528.03 1219.77Z" fill="#373043"/>
<path d="M1204.42 1608.95C1200.13 1616.92 1183.21 1635.27 1175.29 1643.45C1179.37 1630.42 1172.05 1592.69 1170.82 1584.72C1169.29 1574.75 1151.52 1517.44 1151.52 1492.41C1151.52 1470.59 1175.29 1444.88 1210.55 1413.44C1245.82 1382.01 1329.39 1350.57 1342.42 1344.44C1355.46 1338.3 1397.63 1287.7 1409.13 1276.2C1420.63 1264.7 1447.46 1273.9 1452.83 1276.2C1458.2 1278.5 1491.93 1305.34 1494.23 1300.74C1496.07 1297.06 1532.31 1273.14 1550.2 1261.64C1562.21 1265.72 1594.36 1280.19 1626.87 1305.34C1667.5 1336.77 1803.21 1382.77 1820.84 1389.67C1838.48 1396.57 1843.84 1417.27 1852.28 1456.38C1860.71 1495.48 1854.58 1564.48 1852.28 1572.91C1850.44 1579.66 1830.55 1622.75 1820.84 1643.45C1815.48 1638.08 1781.74 1593.61 1774.84 1586.71C1767.94 1579.81 1763.73 1543.78 1757.6 1536.88C1751.46 1529.98 1706.64 1508.43 1689.78 1499.23C1672.91 1490.03 1613.07 1477.84 1594.67 1471.71C1579.95 1466.8 1540.49 1459.44 1522.6 1456.38L1487.33 1477.84L1467.4 1460.98C1464.07 1459.44 1450.99 1457.3 1425.23 1460.98C1393.03 1465.58 1260.39 1524.61 1245.82 1536.88C1231.25 1549.15 1222.05 1566.01 1215.92 1576.75C1209.79 1587.48 1209.79 1598.98 1204.42 1608.95Z" fill="#373043"/>
<path fill-rule="evenodd" clip-rule="evenodd" d="M1838.53 222.426C1860.69 250.456 1863.61 280.67 1860.65 302.382C1879.26 295.882 1909.23 291.469 1928.91 309.338C1932.38 312.482 1936.05 315.776 1939.87 319.208C1968.4 344.81 2005.46 378.077 2028.51 413.446C2054.65 453.556 2083.95 529.271 2088.45 542.341C2092.96 555.41 2107.83 589.212 2120 604.535C2132.17 619.858 2147.94 654.11 2144.34 664.926C2147.19 665.527 2152.99 668.892 2153.35 677.545C2153.62 684.096 2150.26 690.647 2147.57 695.896C2145.81 699.314 2144.34 702.18 2144.34 704.135C2144.34 705.891 2145.22 708.614 2146.29 711.887L2146.29 711.888C2148.23 717.858 2150.77 725.658 2149.61 732.753C2149.51 733.357 2149.36 734.261 2149.17 735.432C2146.5 751.685 2135.36 819.491 2131.75 854.061C2138.82 961.866 2134.64 1086.23 2110.98 1103.82C2103.83 1133.72 2100.03 1173.39 2097.16 1203.23C2095.62 1219.3 2094.35 1232.52 2092.98 1239.83C2089.07 1260.69 2065.59 1431.04 2062.98 1485.83C2060.37 1540.61 2031.42 1685.39 2020.98 1725.83C2012.12 1760.16 1985.09 1787.84 1964.94 1808.49L1964.93 1808.49C1961.35 1812.16 1957.99 1815.6 1954.98 1818.83C1935.66 1839.52 1884.65 1877.25 1832.08 1916.14C1808.45 1933.61 1784.51 1951.32 1762.98 1967.83C1702.98 2013.83 1611.03 2050.83 1597.98 2050.83C1593.77 2050.83 1578.8 2051.9 1559.15 2053.32L1559.15 2053.32L1559.14 2053.32C1517.96 2056.28 1456.22 2060.72 1429.73 2059.84C1390.6 2058.53 1313.77 2016.82 1271.98 1989.83C1234.16 1965.39 1191.33 1934.48 1176.98 1918.83C1162.63 1903.17 1087.08 1776.5 1057.98 1696.83C1029.16 1617.91 1024.57 1519.15 1024.57 1511.33C1024.57 1503.5 998.678 1247.26 986.77 1174.11C982.829 1149.91 977.738 1129.16 972.873 1109.35C963.037 1069.28 954.129 1032.99 957.544 979.491C958.991 956.818 959.202 936.157 959.421 914.693C959.72 885.311 960.035 854.424 963.558 814.811C960.302 803.625 957.507 790.855 957.982 781.825C958.484 772.296 964.514 762.006 970.751 754.013C972.733 740.375 975.075 725.81 977.845 710.163C977.494 709.657 977.138 709.133 976.777 708.592C957.153 679.156 968.77 632.363 974.787 608.125C975.574 604.958 976.265 602.176 976.777 599.868C979.13 589.28 993.958 581.81 1010.68 576.468C1024.96 531.531 1042.29 486.77 1061.47 444.562C1062.09 397.255 1065.56 344.156 1075.62 315.532C1078.27 307.967 1080.81 300.484 1083.29 293.164L1083.29 293.162C1099.41 245.587 1113.18 204.923 1143.08 193.628C1153.97 189.515 1163.41 185.021 1171.87 180.988C1182.04 176.145 1190.81 171.968 1199.02 169.915C1206.46 164.815 1215.76 159.889 1224.19 155.42C1236.62 148.834 1247.18 143.239 1247.18 139.543C1247.18 136.962 1246.66 135.017 1246.21 133.364C1245.24 129.745 1244.65 127.522 1250.7 123.084C1259.52 116.617 1270.1 91.9289 1274.22 79.5846C1278.33 67.2403 1327.12 39.6127 1372.38 14.9242C1415.59 -8.6438 1463.62 2.60696 1487.83 8.27905C1488.98 8.54873 1490.08 8.80581 1491.12 9.04593C1503.48 11.899 1509.86 12.1877 1516.62 12.4935C1522.4 12.7547 1528.44 13.0285 1538.74 14.9242C1549.34 16.8772 1552.92 25.3192 1555.9 32.3303C1559.19 40.0906 1561.74 46.0979 1572.24 39.6127C1592.23 27.2684 1609.86 29.6197 1658.06 60.1865C1696.62 84.64 1717.24 123.28 1722.72 139.543C1759.17 131.313 1798.55 171.873 1838.53 222.426ZM1004.62 1102C1004.06 1129.79 1005.31 1196.93 1014.83 1243.2C1026.74 1301.04 1062.25 1505 1064.5 1527.98C1064.89 1531.91 1065.2 1535.44 1065.47 1538.58C1066.79 1553.82 1067.31 1559.82 1072.17 1556.83C1078.03 1553.22 1103.26 1545.56 1110.47 1547.36C1116.24 1548.8 1127 1572.3 1131.66 1583.87C1130.76 1600.09 1131.93 1634.79 1143.82 1643.81C1158.7 1655.07 1170.42 1651.92 1170.42 1643.81C1172.82 1659.88 1183.76 1693.92 1208.27 1701.49C1238.92 1710.96 1275.87 1736.2 1293 1752.42C1297.04 1756.24 1300.95 1760.82 1304.87 1765.41L1304.87 1765.41L1304.87 1765.41L1304.87 1765.41L1304.88 1765.41L1304.88 1765.42L1304.88 1765.42C1317.61 1780.32 1330.52 1795.42 1348.43 1785.77C1371.87 1773.15 1391.7 1757.38 1385.39 1752.42C1383.72 1751.11 1380.3 1749.02 1375.96 1746.37C1363.89 1738.99 1344.79 1727.31 1337.17 1716.37C1326.8 1701.49 1322.75 1686.62 1323.2 1680.76C1323.65 1674.9 1337.62 1651.47 1348.43 1643.81C1357.09 1637.68 1363.76 1633.74 1366.01 1632.54C1390.05 1629.23 1444.79 1623.08 1471.47 1624.88C1488.25 1626.01 1515.98 1625.32 1540.94 1624.7H1540.95H1540.95H1540.95H1540.95H1540.95H1540.96C1565.61 1624.08 1587.56 1623.53 1593.61 1624.88C1605.77 1627.58 1635.52 1649.21 1641.38 1658.68C1647.24 1668.14 1642.28 1708.25 1628.31 1719.07C1623.23 1723 1615.96 1727.58 1608.71 1732.15C1596 1740.16 1583.36 1748.12 1582.79 1752.42C1582.69 1753.18 1582.57 1753.93 1582.46 1754.66C1581.59 1760.41 1580.85 1765.3 1586.84 1770.9C1593.61 1777.21 1610.73 1795.69 1613.44 1808.76C1615.19 1817.25 1617.9 1814.32 1621.56 1810.37C1623.54 1808.23 1625.78 1805.8 1628.31 1804.7C1630.5 1803.74 1637 1798.71 1646.1 1791.68L1646.11 1791.68L1646.11 1791.68C1666.98 1775.55 1701.5 1748.89 1728.81 1736.65C1737.29 1732.85 1746.41 1729.4 1755.54 1725.95L1755.55 1725.95C1788.68 1713.44 1822.06 1700.83 1825.98 1670.83C1847.32 1652.83 1890.18 1612.83 1890.98 1596.83C1891.3 1590.45 1890.4 1583.77 1889.54 1577.43C1887.71 1563.87 1886.08 1551.81 1896.98 1547.36C1902.43 1545.14 1906.36 1546.07 1910.05 1546.96C1917.2 1548.66 1923.44 1550.15 1938.07 1527.98C1947.32 1513.96 1962.93 1498.29 1978.36 1482.81C1999.91 1461.18 2021.11 1439.9 2024.15 1423.94C2026.24 1412.98 2026.24 1393.26 2026.24 1372.37C2026.24 1341.04 2026.24 1307.07 2033.28 1296.12C2045.02 1277.86 2072.41 1212.64 2072.41 1195.69C2072.41 1188.33 2070.69 1177.49 2068.85 1165.9C2066.45 1150.76 2063.85 1134.33 2064.59 1122.65C2064.76 1119.87 2065.01 1116.53 2065.29 1112.74C2067.08 1088.31 2070.23 1045.4 2064.59 1018.3C2064.23 1016.6 2063.85 1014.76 2063.44 1012.79C2063.09 1011.11 2062.72 1009.34 2062.34 1007.48C2054.96 971.88 2041.49 906.875 2033.28 878.743C2024.15 847.44 1995.46 727.444 1994.15 694.837C1993.85 687.227 1993.9 677.13 1993.96 665.675V665.672V665.669V665.666V665.663V665.661V665.658C1994.15 628.03 1994.41 575.749 1982.42 548.755C1966.76 513.539 1862.42 359.632 1789.38 323.112C1760.97 308.908 1738.09 295.888 1719.58 285.356L1719.58 285.356C1690.5 268.809 1672.21 258.404 1660.25 259.201C1651.92 259.757 1638.12 261.808 1623.21 264.023L1623.2 264.023C1603.13 267.007 1581.03 270.29 1567.54 270.627C1559.2 270.836 1535.9 272.746 1508.51 274.994L1508.51 274.994L1508.51 274.994C1458.69 279.08 1395.31 284.28 1383.55 282.384C1378.57 282.384 1371.33 282.083 1363.2 281.745H1363.2H1363.2L1363.2 281.745H1363.2H1363.2C1343.5 280.925 1318.54 279.887 1307.72 282.384C1292.44 285.911 1203.68 354.686 1188.98 386.428C1186.06 392.739 1182.88 400.049 1179.5 407.84C1165.85 439.239 1148.8 478.462 1131.37 491.649C1125.02 496.454 1118.62 502.211 1112.51 508.466C1108.69 532.228 1099.31 573.26 1082.64 605.213C1068.84 631.669 1051.34 644.154 1037.98 649.102C1033.51 665.899 1029.88 685.046 1027.92 706.792C1022.73 764.236 1023.77 804.625 1024.43 829.979C1024.73 841.986 1024.96 850.621 1024.39 856.099C1024.2 857.953 1023.76 861.898 1023.14 867.503C1018.05 913.423 1000.63 1070.74 1004.62 1102ZM1040.05 641.721C1051.34 636.378 1065.58 624.939 1077.32 602.437C1091.66 574.961 1100.53 540.365 1105.01 516.552C1102.15 519.798 1099.39 523.119 1096.77 526.461C1095.2 533.033 1092.46 543.241 1088.88 554.078C1084.13 568.467 1077.8 584.234 1070.59 594.011C1065.76 600.564 1059.07 604.832 1052.23 607.547C1047.99 617.556 1043.79 628.906 1040.05 641.721ZM1054.59 602.109C1059.48 599.646 1063.98 596.249 1067.37 591.639C1074.17 582.416 1080.34 567.183 1085.08 552.823C1087.19 546.435 1089.01 540.274 1090.45 534.973C1085.23 542.409 1080.89 549.721 1077.88 556.309C1076.21 559.96 1073.8 564.387 1070.93 569.675L1070.93 569.677L1070.92 569.68L1070.92 569.681C1066.31 578.165 1060.49 588.861 1054.59 602.109Z" fill="#373043"/>
<path fill-rule="evenodd" clip-rule="evenodd" d="M1283.32 973.227C1288.82 965.338 1292.05 955.743 1292.05 945.394C1292.05 933.925 1288.09 923.382 1281.45 915.06C1273.38 911.33 1252.55 902.553 1237.13 902.553C1236.76 902.553 1236.4 902.553 1236.04 902.553C1223.16 902.546 1217.15 902.543 1208.55 911.33C1199.95 920.112 1194.65 932.134 1194.65 945.394C1194.65 962.096 1202.93 976.478 1215.75 985.251C1224.36 986.431 1233.1 986.213 1243.24 985.775C1261.87 984.683 1267.73 983.59 1283.32 973.227Z" fill="#219653"/>
<path d="M1223.21 986.315C1223.46 986.299 1223.66 986.101 1223.68 985.852C1223.7 985.602 1223.53 985.378 1223.28 985.327L1218.08 984.23C1205.96 975.895 1198.15 962.292 1198.15 946.492C1198.15 933.912 1203.18 922.511 1211.33 914.178C1215.4 910.021 1218.68 908.116 1222.32 907.161C1226.13 906.163 1230.49 906.148 1237.04 906.151C1237.39 906.151 1237.76 906.151 1238.13 906.151C1245.44 906.151 1254.21 908.248 1262.27 910.883C1269.94 913.388 1276.79 916.318 1280.86 918.179C1286.94 926 1290.55 935.82 1290.55 946.492C1290.55 956.329 1288.68 964.581 1283.51 972.024L1281.3 973.949C1281.13 974.1 1281.08 974.351 1281.19 974.556C1281.3 974.76 1281.53 974.866 1281.75 974.811L1284 974.264C1284.07 974.248 1284.13 974.219 1284.18 974.178L1288.55 970.906C1288.6 970.874 1288.63 970.835 1288.66 970.792C1291.55 966.656 1293.28 963.293 1294.28 959.589C1295.28 955.892 1295.55 951.888 1295.55 946.492C1295.55 934.437 1291.38 923.348 1284.41 914.6C1284.16 914.296 1283.85 914.052 1283.5 913.889C1279.41 911.999 1272.09 908.831 1263.82 906.13C1255.6 903.444 1246.24 901.151 1238.13 901.151C1237.76 901.151 1237.4 901.151 1237.04 901.151L1236.82 901.151L1236.77 901.151C1230.56 901.148 1225.56 901.145 1221.06 902.324C1216.33 903.563 1212.29 906.049 1207.76 910.68C1198.73 919.91 1193.15 932.553 1193.15 946.492C1193.15 961.915 1199.87 975.466 1210.62 984.78C1211.41 985.461 1212.07 985.86 1213.14 986.118C1214.17 986.366 1215.57 986.487 1217.84 986.657C1217.86 986.658 1217.89 986.658 1217.91 986.657L1223.21 986.315Z" fill="#373043" stroke="#373043" stroke-linejoin="round"/>
<path d="M1184.57 913.279C1150.29 929.864 1141.94 944.307 1133.19 957.207C1145.26 959.172 1149.47 959.172 1158.46 955.803C1158.46 952.435 1162.67 945.978 1184.57 929.976C1206.47 913.974 1233.97 913.279 1260.64 913.279C1287.31 913.279 1319.88 939.539 1329.14 945.978C1336.55 951.128 1332.23 956.92 1329.14 959.172C1340.65 959.64 1364.29 960.295 1366.76 959.172C1369.85 957.768 1369.57 951.873 1369.29 947.943C1369.01 944.013 1360.1 940.922 1351.81 939.539C1343.51 938.157 1314.49 924.336 1282.7 913.279C1250.91 902.222 1227.41 892.547 1184.57 913.279Z" fill="#373043"/>
<path d="M1806.81 936.943C1806.81 950.462 1801.46 962.731 1792.76 971.75C1776.24 976.353 1770.04 977.618 1755.87 977.618C1742.67 977.618 1733.6 977.618 1722.51 973.657C1712.68 964.502 1706.52 951.441 1706.52 936.943C1706.52 922.096 1712.98 908.755 1723.23 899.574C1732.1 891.63 1743.02 894.241 1755.87 894.241C1767.02 894.241 1778.13 890.441 1786.45 896.601C1798.8 905.735 1806.81 920.404 1806.81 936.943Z" fill="#219653"/>
<path d="M1723.04 973.638C1713.2 964.483 1707.05 951.422 1707.05 936.924C1707.05 922.076 1713.5 908.736 1723.75 899.554C1732.63 891.61 1743.55 894.221 1756.39 894.221C1767.55 894.221 1778.65 890.422 1786.98 896.581C1799.33 905.715 1807.33 920.384 1807.33 936.924C1807.33 950.442 1801.99 962.712 1793.29 971.73" stroke="#373043" stroke-width="6"/>
<path d="M1627.28 962.26C1630.42 966.976 1634.21 966.471 1635.7 965.629L1656.76 962.26C1652.55 959.079 1644.18 952.167 1644.41 949.976C1644.69 947.236 1671.07 925.682 1712.62 905.833C1754.17 885.983 1797.69 908.36 1811.44 914.536C1822.45 919.477 1837.92 934.187 1844.29 940.924C1846.98 942.272 1861.54 942.537 1868.48 942.501C1858.51 931.912 1821.14 908.241 1801.2 896.406C1781.27 884.571 1736.42 892.046 1725.21 892.668C1714 893.291 1675.38 913.224 1658.56 925.682C1641.74 938.141 1623.05 946.238 1621.18 949.976C1619.32 953.713 1623.35 956.365 1627.28 962.26Z" fill="#373043"/>
<path d="M1283.08 1551.36C1284.49 1553.28 1288.72 1557.3 1294.33 1557.97C1301.35 1558.82 1312.58 1564.59 1322.97 1557.97C1333.35 1551.36 1359.46 1547.87 1366.2 1546.46C1372.94 1545.06 1400.45 1535.52 1409.99 1535.52C1419.54 1535.52 1448.45 1538.6 1485.79 1538.6C1523.13 1538.6 1570.29 1530.46 1576.47 1531.87C1582.64 1533.27 1667.43 1546.18 1683.15 1550.68C1695.72 1554.27 1726.38 1548.8 1740.13 1545.62" stroke="#373043" stroke-width="4" stroke-linecap="round"/>
<circle cx="1755.93" cy="937.141" r="20.3114" fill="#373043"/>
<circle cx="1241.79" cy="945.481" r="20.3114" fill="#373043"/>
<path d="M1300.11 740.752C1290.56 737.314 1255.36 734.706 1238.95 733.832C1159.63 737.895 1112.9 796.152 1107.17 804.748C1102.59 811.625 1096.98 835.632 1094.75 846.775C1096.98 845.024 1102.59 840.853 1107.17 838.179C1112.9 834.836 1135.99 826.596 1146.81 820.508C1162.09 811.912 1179.29 804.748 1203.64 791.853C1224.89 780.607 1300.11 796.152 1304.89 796.152C1309.67 796.152 1334.98 803.793 1338.8 804.748C1342.62 805.703 1355.04 787.078 1356.47 781.347C1357.9 775.616 1346.92 758.9 1343.57 754.602C1340.23 750.304 1312.05 745.051 1300.11 740.752Z" fill="#373043"/>
<path d="M1666.42 726.903C1634.98 734.905 1627.26 761.289 1623.44 775.616C1652.89 778.163 1700.71 777.431 1706.06 771.318C1712.74 763.676 1727.07 765.109 1774.35 757.468C1821.63 749.827 1860.32 785.168 1877.99 784.69C1895.66 784.212 1913.33 797.107 1912.37 793.764C1911.42 790.421 1892.79 756.035 1845.51 726.903C1798.23 697.77 1718.95 713.531 1666.42 726.903Z" fill="#373043"/>
<path d="M1154.3 1820.13C1157.11 1855.23 1163.22 1928.44 1165.22 1940.4C1167.71 1955.35 1195.12 2086.16 1200.1 2100.48C1205.08 2114.81 1245.57 2233.79 1246.82 2244.38C1247.81 2252.85 1247.23 2266.18 1246.82 2271.78C1254.71 2296.49 1271.61 2348.9 1276.09 2360.86C1280.58 2372.82 1297.07 2410.69 1304.75 2428.13C1318.04 2442.25 1349.97 2472.73 1371.4 2481.7C1374.1 2487.72 1381.37 2501.51 1388.84 2508.49C1398.18 2517.21 1417.49 2534.03 1423.1 2545.86C1428.71 2557.7 1438.67 2583.86 1442.41 2588.84C1446.15 2593.83 1464.21 2614.38 1466.7 2624.35C1468.7 2632.32 1477.5 2682.07 1481.65 2705.95L1515.29 2661.72C1514.67 2655.7 1515.04 2640.79 1521.52 2629.33C1529.62 2615.01 1578.2 2558.32 1603.12 2545.86C1628.04 2533.4 1641.12 2537.14 1654.82 2517.21C1668.53 2497.28 1704.03 2457.41 1715.24 2448.07C1726.46 2438.72 1742.65 2431.87 1767.57 2393.25C1792.48 2354.63 1829.86 2261.19 1847.3 2243.13C1864.74 2225.07 1875.33 2196.41 1879.69 2183.95C1884.05 2171.5 1926.41 2089.89 1935.13 2058.13C1943.85 2026.36 1945.1 1802.73 1955.69 1790.28" stroke="#373043" stroke-width="8" stroke-linecap="round"/>
<path d="M1145.87 1746.71C1099.8 1742.1 997.426 1734.27 956.514 1739.8C905.375 1746.71 857 1768.83 840.414 1781.26C823.829 1793.7 751.957 1806.14 729.843 1793.7C707.729 1781.26 699.436 1806.14 646.914 1793.7C594.393 1781.26 541.872 1755 449.268 1803.38C375.185 1842.08 228.777 1897.39 185.278 2013.46C141.78 2129.54 55.541 2270.44 55.541 2270.44" stroke="#373043" stroke-width="8" stroke-linecap="round"/>
<path d="M1954.17 1764.22C1962.56 1770.18 1980.65 1788.27 1985.85 1812.97C1991.05 1837.67 2015.1 1866.59 2026.48 1877.96L2032.16 1895.84C2058.16 1902.07 2119.75 1918.59 2158.1 1934.84C2206.03 1955.15 2474.95 2103.83 2540.76 2146.89C2593.41 2181.34 2812.8 2363.84 2829.63 2381.83" stroke="#373043" stroke-width="8" stroke-linecap="round"/>
<path d="M1145.1 1758.86C1127.79 1760.27 1090 1769.67 1077.28 1795.95C1061.38 1828.8 1048.28 1899.09 1031 1938.65" stroke="#373043" stroke-width="6" stroke-linecap="round"/>
<path d="M1040.79 1911.3C1030.45 1920.77 1018.63 1939.86 1015.95 1956.67C1012.61 1977.68 1006.88 2043.11 1027.89 2127.17C1048.91 2211.22 1096.66 2357.84 1101.44 2381.24C1106.22 2404.64 1114.34 2479.14 1114.34 2482.96C1114.34 2486.79 1114.81 2501.59 1127.71 2493.95C1140.6 2486.31 1154.93 2483.92 1159.71 2479.62C1164.48 2475.32 1185.49 2457.18 1187.4 2446.67C1189.32 2436.16 1192.66 2431.39 1192.18 2423.27C1191.8 2416.77 1182.79 2316.77 1178.33 2267.58" stroke="#373043" stroke-width="6" stroke-linecap="round"/>
<path d="M1235.64 2253.73C1239.46 2251.5 1245.38 2246.08 1238.51 2242.26C1229.91 2237.49 1200.78 2239.88 1191.7 2249.91C1182.63 2259.93 1169.26 2271.87 1167.83 2285.25C1166.39 2298.62 1160.66 2343.99 1174.51 2377.9C1185.59 2405.02 1187.41 2423.9 1186.93 2429.95" stroke="#373043" stroke-width="4" stroke-linecap="round"/>
<path d="M1262.77 3053.59C1267.64 3015.13 1280.48 2925.38 1292.83 2874.04C1305.18 2822.69 1331.02 2808.23 1342.39 2807.41L1352.95 2783.04C1353.76 2786.02 1357.5 2790.19 1365.95 2783.04C1376.51 2774.1 1404.95 2771.67 1422.01 2773.29C1439.07 2774.92 1472.38 2752.98 1515.44 2722.92C1549.89 2698.87 1578.54 2658.73 1588.56 2641.67H1618.63L1654.37 2657.11L1669.81 2651.42C1685.25 2665.23 1692.56 2652.23 1699.06 2651.42C1705.56 2650.61 1744.56 2636.8 1780.3 2607.55C1808.9 2584.15 1814.97 2540.93 1814.43 2522.24L1824.32 2427.7C1826.08 2425.78 1829.64 2421.27 1829.77 2418.63C1829.93 2415.33 1827.95 2407.08 1829.77 2405.43C1831.58 2403.77 1834.22 2401.46 1834.39 2399.48" stroke="#373043" stroke-width="6" stroke-linecap="round"/>
<path d="M1344.58 2790.67L1348.23 2777.76C1348.98 2775.51 1352.39 2771.02 1360.02 2771.02C1369.57 2771.02 1397.36 2758.67 1400.73 2754.74C1404.1 2750.81 1429.08 2738.74 1435.54 2734.81C1440.71 2731.66 1467.78 2715.22 1480.97 2706.7" stroke="#373043" stroke-width="4" stroke-linecap="round"/>
<path d="M1826.14 2457.08C1825.97 2453.28 1826.8 2445.52 1831.42 2444.86C1837.19 2444.04 1847.92 2440.24 1859.31 2451.14C1870.69 2462.03 1874.82 2463.51 1872.84 2467.31C1870.86 2471.1 1863.93 2484.97 1851.72 2489.75C1839.5 2494.54 1826.47 2495.36 1822.84 2499.98" stroke="#373043" stroke-width="4" stroke-linecap="round" stroke-linejoin="round"/>
<path d="M1821.15 2512.92C1824.93 2510.84 1834.55 2505.89 1842.75 2502.67C1853.01 2498.64 1872.05 2500.47 1879.37 2492.05C1886.69 2483.63 1891.82 2472.28 1893.65 2459.83C1895.48 2447.38 1905.37 2388.43 1902.8 2381.47C1900.24 2374.51 1889.25 2352.91 1889.25 2349.25" stroke="#373043" stroke-width="6" stroke-linecap="round" stroke-linejoin="round"/>
<path d="M2031.42 1895.01C2035.6 1913.94 2044 1954.19 2044.13 1963.83C2044.3 1975.88 2048.92 2042.38 2044.13 2056.57C2039.35 2070.76 2031.69 2151.15 1996.91 2219.99C1969.08 2275.06 1922.33 2348.64 1902.44 2378.54" stroke="#373043" stroke-width="6" stroke-linecap="round" stroke-linejoin="round"/>
<path d="M1313.98 1946.82C1327.32 1965.49 1358.78 2014.02 1377.98 2058.82C1401.98 2114.82 1389.98 2150.82 1461.98 2194.82C1519.58 2230.02 1556.65 2249.49 1581.98 2246.82" stroke="#373043" stroke-width="2" stroke-linecap="round" stroke-linejoin="round"/>
<path d="M2126.84 1062.16C2115.29 1053.71 2099.56 1058.64 2093.15 1062.16L2086.3 1134.29L2079.71 1204.28L2059.52 1466.66C2064.27 1466.83 2077.2 1464.57 2090.98 1454.19C2108.19 1441.21 2115.21 1424.16 2117.12 1415C2119.03 1405.83 2123.92 1391.84 2133.91 1373.26C2143.9 1354.68 2150.06 1305.82 2151.98 1289.53C2153.89 1273.24 2150.49 1220.31 2148.36 1207.08C2146.24 1193.84 2152.83 1141.93 2153.04 1134.29C2153.25 1126.66 2154.12 1115.96 2151.71 1101.55C2149.31 1087.14 2141.28 1072.73 2126.84 1062.16Z" stroke="#373043" stroke-width="4" stroke-linecap="round" stroke-linejoin="round"/>
<path d="M2092.81 1198.87C2090.15 1201.09 2086.04 1206.71 2090.81 1211.49C2096.79 1217.46 2107.41 1228.08 2105.09 1250.65C2102.76 1273.23 2087.83 1282.19 2087.5 1286.17C2087.16 1290.15 2092.81 1294.14 2092.81 1300.11C2092.81 1306.09 2080.86 1308.41 2084.18 1312.39" stroke="#373043" stroke-width="2" stroke-linecap="round" stroke-linejoin="round"/>
<path d="M2111.14 1109.89C2111.97 1124.05 2114.35 1155.56 2117.24 1168.31C2120.84 1184.24 2137.2 1245.32 2138.3 1271.21C2139.41 1297.1 2131.65 1330.63 2115.57 1352.2C2102.71 1369.46 2101.9 1375.99 2103.1 1377.1" stroke="#373043" stroke-linecap="round" stroke-linejoin="round"/>
<path d="M2103.17 1080.68C2107.4 1077.56 2117.28 1072.92 2122.89 1079.32C2129.89 1087.32 2140.81 1095.9 2138.37 1120.29C2135.92 1144.68 2128.1 1171.41 2129.73 1185.07" stroke="#373043" stroke-width="2" stroke-linecap="round" stroke-linejoin="round"/>
<path d="M957.92 1053.15C961.881 1048.16 973.202 1055.23 978.368 1059.4L997.954 1160.34L1006.78 1264.52V1306.92C998.887 1293.86 981.467 1263.01 974.924 1244.07C966.745 1220.39 971.48 1195 971.695 1185.74C971.911 1176.48 963.947 1126.33 963.947 1121.38C963.947 1116.43 952.97 1059.4 957.92 1053.15Z" stroke="#373043" stroke-width="3" stroke-linecap="round" stroke-linejoin="round"/>
<ellipse cx="1226.81" cy="942.983" rx="8.33179" ry="5.84218" fill="white"/>
<ellipse cx="1735.62" cy="938.062" rx="8.33179" ry="5.84218" fill="white"/>
<circle cx="1217.98" cy="926.866" r="3.49982" fill="white"/>
<circle cx="1741.1" cy="920.325" r="3.49982" fill="white"/>
<path d="M1230.49 2370.53C1236.2 2381.2 1240.26 2391.41 1242.21 2399.29C1243.18 2403.23 1243.62 2406.54 1243.5 2408.99C1243.37 2411.52 1242.68 2412.8 1241.82 2413.26C1240.96 2413.73 1239.51 2413.59 1237.33 2412.29C1235.22 2411.03 1232.72 2408.84 1229.97 2405.84C1224.5 2399.85 1218.25 2390.81 1212.54 2380.14C1206.83 2369.48 1202.77 2359.26 1200.82 2351.39C1199.84 2347.44 1199.41 2344.14 1199.53 2341.68C1199.65 2339.15 1200.34 2337.87 1201.21 2337.41C1202.07 2336.95 1203.52 2337.08 1205.69 2338.38C1207.8 2339.64 1210.31 2341.84 1213.05 2344.84C1218.53 2350.83 1224.78 2359.86 1230.49 2370.53Z" stroke="#373043" stroke-width="2"/>
<path d="M1199.72 2341.23C1199.28 2340.19 1199.02 2337.7 1201.53 2336.12C1204.04 2334.53 1208.08 2331.39 1209.78 2330.01C1210.61 2328.75 1212.98 2326.71 1215.89 2328.69C1219.52 2331.17 1233.22 2341.4 1239.82 2354.6C1246.42 2367.8 1252.85 2376.22 1255.66 2386.45C1258.46 2396.68 1260.77 2403.44 1255.66 2406.75C1251.57 2409.39 1247.79 2411.7 1246.42 2412.52C1244.6 2413.07 1240.74 2414.01 1239.82 2413.35" stroke="#373043" stroke-width="2" stroke-linecap="round" stroke-linejoin="round"/>
<path d="M1368.91 2846.73C1370.9 2806.36 1394.24 2794.61 1405.66 2793.78C1442.41 2793.78 1447.39 2828.66 1441.79 2852.96C1436.18 2877.25 1411.27 2887.84 1409.4 2888.46C1407.53 2889.08 1366.42 2897.18 1368.91 2846.73Z" stroke="#373043" stroke-width="2" stroke-linecap="round" stroke-linejoin="round"/>
<path d="M1423.72 2821.19C1420.4 2817.86 1411.76 2813.21 1403.79 2821.19C1393.82 2831.15 1387.59 2852.96 1397.56 2862.3" stroke="#373043" stroke-width="2" stroke-linecap="round" stroke-linejoin="round"/>
<path d="M1412.51 2829.91C1413.76 2835.1 1414.5 2846.73 1407.53 2851.71" stroke="#373043" stroke-width="2" stroke-linecap="round" stroke-linejoin="round"/>
</svg>
